<svg width="3237.3" height="1170.4" xmlns="http://www.w3.org/2000/svg" xmlns:xlink="http://www.w3.org/1999/xlink"><line x1="789.21875" y1="6.0" x2="135.125" y2="29.0" style="stroke:black; stroke-width:1px;" />
<line x1="135.125" y1="35.0" x2="135.125" y2="58.0" style="stroke:black; stroke-width:1px;" />
<line x1="135.125" y1="64.0" x2="11.0" y2="87.0" style="stroke:black; stroke-width:1px;" />
<line x1="135.125" y1="64.0" x2="36.0" y2="87.0" style="stroke:black; stroke-width:1px;" />
<line x1="135.125" y1="64.0" x2="71.0" y2="87.0" style="stroke:black; stroke-width:1px;" />
<line x1="135.125" y1="64.0" x2="103.0" y2="87.0" style="stroke:black; stroke-width:1px;" />
<line x1="135.125" y1="64.0" x2="141.0" y2="87.0" style="stroke:black; stroke-width:1px;" />
<line x1="141.0" y1="93.0" x2="115.5" y2="116.0" style="stroke:black; stroke-width:1px;" />
<line x1="115.5" y1="122.0" x2="115.5" y2="145.0" style="stroke:black; stroke-width:1px;" />
<line x1="141.0" y1="93.0" x2="141.0" y2="116.0" style="stroke:black; stroke-width:1px;" />
<line x1="141.0" y1="93.0" x2="166.5" y2="116.0" style="stroke:black; stroke-width:1px;" />
<line x1="166.5" y1="122.0" x2="166.5" y2="145.0" style="stroke:black; stroke-width:1px;" />
<line x1="135.125" y1="64.0" x2="182.41666666666663" y2="87.0" style="stroke:black; stroke-width:1px;" />
<line x1="135.125" y1="64.0" x2="200.83333333333337" y2="87.0" style="stroke:black; stroke-width:1px;" />
<line x1="135.125" y1="64.0" x2="231.75" y2="87.0" style="stroke:black; stroke-width:1px;" />
<line x1="231.75" y1="93.0" x2="231.75" y2="116.0" style="stroke:black; stroke-width:1px;" />
<line x1="231.75" y1="122.0" x2="197.0" y2="145.0" style="stroke:black; stroke-width:1px;" />
<line x1="231.75" y1="122.0" x2="239.0" y2="145.0" style="stroke:black; stroke-width:1px;" />
<line x1="239.0" y1="151.0" x2="239.0" y2="174.0" style="stroke:black; stroke-width:1px;" />
<line x1="239.0" y1="180.0" x2="203.0" y2="203.0" style="stroke:black; stroke-width:1px;" />
<line x1="203.0" y1="209.0" x2="203.0" y2="232.0" style="stroke:black; stroke-width:1px;" />
<line x1="239.0" y1="180.0" x2="239.0" y2="203.0" style="stroke:black; stroke-width:1px;" />
<line x1="239.0" y1="209.0" x2="239.0" y2="232.0" style="stroke:black; stroke-width:1px;" />
<line x1="239.0" y1="180.0" x2="275.0" y2="203.0" style="stroke:black; stroke-width:1px;" />
<line x1="275.0" y1="209.0" x2="275.0" y2="232.0" style="stroke:black; stroke-width:1px;" />
<line x1="231.75" y1="122.0" x2="266.5" y2="145.0" style="stroke:black; stroke-width:1px;" />
<line x1="135.125" y1="64.0" x2="259.25" y2="87.0" style="stroke:black; stroke-width:1px;" />
<line x1="789.21875" y1="6.0" x2="421.875" y2="29.0" style="stroke:black; stroke-width:1px;" />
<line x1="421.875" y1="35.0" x2="421.875" y2="58.0" style="stroke:black; stroke-width:1px;" />
<line x1="421.875" y1="64.0" x2="292.25" y2="87.0" style="stroke:black; stroke-width:1px;" />
<line x1="421.875" y1="64.0" x2="328.25" y2="87.0" style="stroke:black; stroke-width:1px;" />
<line x1="421.875" y1="64.0" x2="363.25" y2="87.0" style="stroke:black; stroke-width:1px;" />
<line x1="421.875" y1="64.0" x2="395.25" y2="87.0" style="stroke:black; stroke-width:1px;" />
<line x1="421.875" y1="64.0" x2="433.25" y2="87.0" style="stroke:black; stroke-width:1px;" />
<line x1="433.25" y1="93.0" x2="407.75" y2="116.0" style="stroke:black; stroke-width:1px;" />
<line x1="407.75" y1="122.0" x2="407.75" y2="145.0" style="stroke:black; stroke-width:1px;" />
<line x1="433.25" y1="93.0" x2="433.25" y2="116.0" style="stroke:black; stroke-width:1px;" />
<line x1="433.25" y1="93.0" x2="458.75" y2="116.0" style="stroke:black; stroke-width:1px;" />
<line x1="458.75" y1="122.0" x2="458.75" y2="145.0" style="stroke:black; stroke-width:1px;" />
<line x1="421.875" y1="64.0" x2="474.66666666666663" y2="87.0" style="stroke:black; stroke-width:1px;" />
<line x1="421.875" y1="64.0" x2="493.08333333333337" y2="87.0" style="stroke:black; stroke-width:1px;" />
<line x1="421.875" y1="64.0" x2="524.0" y2="87.0" style="stroke:black; stroke-width:1px;" />
<line x1="524.0" y1="93.0" x2="524.0" y2="116.0" style="stroke:black; stroke-width:1px;" />
<line x1="524.0" y1="122.0" x2="489.25" y2="145.0" style="stroke:black; stroke-width:1px;" />
<line x1="524.0" y1="122.0" x2="531.25" y2="145.0" style="stroke:black; stroke-width:1px;" />
<line x1="531.25" y1="151.0" x2="531.25" y2="174.0" style="stroke:black; stroke-width:1px;" />
<line x1="531.25" y1="180.0" x2="495.25" y2="203.0" style="stroke:black; stroke-width:1px;" />
<line x1="495.25" y1="209.0" x2="495.25" y2="232.0" style="stroke:black; stroke-width:1px;" />
<line x1="531.25" y1="180.0" x2="531.25" y2="203.0" style="stroke:black; stroke-width:1px;" />
<line x1="531.25" y1="209.0" x2="531.25" y2="232.0" style="stroke:black; stroke-width:1px;" />
<line x1="531.25" y1="180.0" x2="567.25" y2="203.0" style="stroke:black; stroke-width:1px;" />
<line x1="567.25" y1="209.0" x2="567.25" y2="232.0" style="stroke:black; stroke-width:1px;" />
<line x1="524.0" y1="122.0" x2="558.75" y2="145.0" style="stroke:black; stroke-width:1px;" />
<line x1="421.875" y1="64.0" x2="551.5" y2="87.0" style="stroke:black; stroke-width:1px;" />
<line x1="789.21875" y1="6.0" x2="711.125" y2="29.0" style="stroke:black; stroke-width:1px;" />
<line x1="711.125" y1="35.0" x2="711.125" y2="58.0" style="stroke:black; stroke-width:1px;" />
<line x1="711.125" y1="64.0" x2="582.5" y2="87.0" style="stroke:black; stroke-width:1px;" />
<line x1="711.125" y1="64.0" x2="616.5" y2="87.0" style="stroke:black; stroke-width:1px;" />
<line x1="711.125" y1="64.0" x2="651.5" y2="87.0" style="stroke:black; stroke-width:1px;" />
<line x1="711.125" y1="64.0" x2="683.5" y2="87.0" style="stroke:black; stroke-width:1px;" />
<line x1="711.125" y1="64.0" x2="721.5" y2="87.0" style="stroke:black; stroke-width:1px;" />
<line x1="721.5" y1="93.0" x2="696.0" y2="116.0" style="stroke:black; stroke-width:1px;" />
<line x1="696.0" y1="122.0" x2="696.0" y2="145.0" style="stroke:black; stroke-width:1px;" />
<line x1="721.5" y1="93.0" x2="721.5" y2="116.0" style="stroke:black; stroke-width:1px;" />
<line x1="721.5" y1="93.0" x2="747.0" y2="116.0" style="stroke:black; stroke-width:1px;" />
<line x1="747.0" y1="122.0" x2="747.0" y2="145.0" style="stroke:black; stroke-width:1px;" />
<line x1="711.125" y1="64.0" x2="762.9166666666666" y2="87.0" style="stroke:black; stroke-width:1px;" />
<line x1="711.125" y1="64.0" x2="781.3333333333334" y2="87.0" style="stroke:black; stroke-width:1px;" />
<line x1="711.125" y1="64.0" x2="812.25" y2="87.0" style="stroke:black; stroke-width:1px;" />
<line x1="812.25" y1="93.0" x2="812.25" y2="116.0" style="stroke:black; stroke-width:1px;" />
<line x1="812.25" y1="122.0" x2="777.5" y2="145.0" style="stroke:black; stroke-width:1px;" />
<line x1="812.25" y1="122.0" x2="819.5" y2="145.0" style="stroke:black; stroke-width:1px;" />
<line x1="819.5" y1="151.0" x2="819.5" y2="174.0" style="stroke:black; stroke-width:1px;" />
<line x1="819.5" y1="180.0" x2="783.5" y2="203.0" style="stroke:black; stroke-width:1px;" />
<line x1="783.5" y1="209.0" x2="783.5" y2="232.0" style="stroke:black; stroke-width:1px;" />
<line x1="819.5" y1="180.0" x2="819.5" y2="203.0" style="stroke:black; stroke-width:1px;" />
<line x1="819.5" y1="209.0" x2="819.5" y2="232.0" style="stroke:black; stroke-width:1px;" />
<line x1="819.5" y1="180.0" x2="855.5" y2="203.0" style="stroke:black; stroke-width:1px;" />
<line x1="855.5" y1="209.0" x2="855.5" y2="232.0" style="stroke:black; stroke-width:1px;" />
<line x1="812.25" y1="122.0" x2="847.0" y2="145.0" style="stroke:black; stroke-width:1px;" />
<line x1="711.125" y1="64.0" x2="839.75" y2="87.0" style="stroke:black; stroke-width:1px;" />
<line x1="789.21875" y1="6.0" x2="993.375" y2="29.0" style="stroke:black; stroke-width:1px;" />
<line x1="993.375" y1="35.0" x2="993.375" y2="58.0" style="stroke:black; stroke-width:1px;" />
<line x1="993.375" y1="64.0" x2="866.75" y2="87.0" style="stroke:black; stroke-width:1px;" />
<line x1="993.375" y1="64.0" x2="896.75" y2="87.0" style="stroke:black; stroke-width:1px;" />
<line x1="993.375" y1="64.0" x2="931.75" y2="87.0" style="stroke:black; stroke-width:1px;" />
<line x1="993.375" y1="64.0" x2="963.75" y2="87.0" style="stroke:black; stroke-width:1px;" />
<line x1="993.375" y1="64.0" x2="1001.75" y2="87.0" style="stroke:black; stroke-width:1px;" />
<line x1="1001.75" y1="93.0" x2="976.25" y2="116.0" style="stroke:black; stroke-width:1px;" />
<line x1="976.25" y1="122.0" x2="976.25" y2="145.0" style="stroke:black; stroke-width:1px;" />
<line x1="1001.75" y1="93.0" x2="1001.75" y2="116.0" style="stroke:black; stroke-width:1px;" />
<line x1="1001.75" y1="93.0" x2="1027.25" y2="116.0" style="stroke:black; stroke-width:1px;" />
<line x1="1027.25" y1="122.0" x2="1027.25" y2="145.0" style="stroke:black; stroke-width:1px;" />
<line x1="993.375" y1="64.0" x2="1043.1666666666667" y2="87.0" style="stroke:black; stroke-width:1px;" />
<line x1="993.375" y1="64.0" x2="1061.5833333333335" y2="87.0" style="stroke:black; stroke-width:1px;" />
<line x1="993.375" y1="64.0" x2="1092.5" y2="87.0" style="stroke:black; stroke-width:1px;" />
<line x1="1092.5" y1="93.0" x2="1092.5" y2="116.0" style="stroke:black; stroke-width:1px;" />
<line x1="1092.5" y1="122.0" x2="1057.75" y2="145.0" style="stroke:black; stroke-width:1px;" />
<line x1="1092.5" y1="122.0" x2="1099.75" y2="145.0" style="stroke:black; stroke-width:1px;" />
<line x1="1099.75" y1="151.0" x2="1099.75" y2="174.0" style="stroke:black; stroke-width:1px;" />
<line x1="1099.75" y1="180.0" x2="1063.75" y2="203.0" style="stroke:black; stroke-width:1px;" />
<line x1="1063.75" y1="209.0" x2="1063.75" y2="232.0" style="stroke:black; stroke-width:1px;" />
<line x1="1099.75" y1="180.0" x2="1099.75" y2="203.0" style="stroke:black; stroke-width:1px;" />
<line x1="1099.75" y1="209.0" x2="1099.75" y2="232.0" style="stroke:black; stroke-width:1px;" />
<line x1="1099.75" y1="180.0" x2="1135.75" y2="203.0" style="stroke:black; stroke-width:1px;" />
<line x1="1135.75" y1="209.0" x2="1135.75" y2="232.0" style="stroke:black; stroke-width:1px;" />
<line x1="1092.5" y1="122.0" x2="1127.25" y2="145.0" style="stroke:black; stroke-width:1px;" />
<line x1="993.375" y1="64.0" x2="1120.0" y2="87.0" style="stroke:black; stroke-width:1px;" />
<line x1="789.21875" y1="6.0" x2="1443.3125" y2="29.0" style="stroke:black; stroke-width:1px;" />
<line x1="1443.3125" y1="35.0" x2="1443.3125" y2="58.0" style="stroke:black; stroke-width:1px;" />
<line x1="1443.3125" y1="64.0" x2="1159.5" y2="87.0" style="stroke:black; stroke-width:1px;" />
<line x1="1443.3125" y1="64.0" x2="1202.0" y2="87.0" style="stroke:black; stroke-width:1px;" />
<line x1="1443.3125" y1="64.0" x2="1237.0" y2="87.0" style="stroke:black; stroke-width:1px;" />
<line x1="1443.3125" y1="64.0" x2="1269.0" y2="87.0" style="stroke:black; stroke-width:1px;" />
<line x1="1443.3125" y1="64.0" x2="1307.0" y2="87.0" style="stroke:black; stroke-width:1px;" />
<line x1="1307.0" y1="93.0" x2="1307.0" y2="116.0" style="stroke:black; stroke-width:1px;" />
<line x1="1307.0" y1="122.0" x2="1307.0" y2="145.0" style="stroke:black; stroke-width:1px;" />
<line x1="1443.3125" y1="64.0" x2="1345.5833333333335" y2="87.0" style="stroke:black; stroke-width:1px;" />
<line x1="1443.3125" y1="64.0" x2="1361.1666666666667" y2="87.0" style="stroke:black; stroke-width:1px;" />
<line x1="1443.3125" y1="64.0" x2="1389.25" y2="87.0" style="stroke:black; stroke-width:1px;" />
<line x1="1389.25" y1="93.0" x2="1389.25" y2="116.0" style="stroke:black; stroke-width:1px;" />
<line x1="1389.25" y1="122.0" x2="1339.5" y2="145.0" style="stroke:black; stroke-width:1px;" />
<line x1="1389.25" y1="122.0" x2="1363.0" y2="145.0" style="stroke:black; stroke-width:1px;" />
<line x1="1389.25" y1="122.0" x2="1401.0" y2="145.0" style="stroke:black; stroke-width:1px;" />
<line x1="1401.0" y1="151.0" x2="1401.0" y2="174.0" style="stroke:black; stroke-width:1px;" />
<line x1="1401.0" y1="180.0" x2="1401.0" y2="203.0" style="stroke:black; stroke-width:1px;" />
<line x1="1389.25" y1="122.0" x2="1439.0" y2="145.0" style="stroke:black; stroke-width:1px;" />
<line x1="1443.3125" y1="64.0" x2="1699.625" y2="87.0" style="stroke:black; stroke-width:1px;" />
<line x1="1699.625" y1="93.0" x2="1699.625" y2="116.0" style="stroke:black; stroke-width:1px;" />
<line x1="1699.625" y1="122.0" x2="1464.0" y2="145.0" style="stroke:black; stroke-width:1px;" />
<line x1="1699.625" y1="122.0" x2="1489.0" y2="145.0" style="stroke:black; stroke-width:1px;" />
<line x1="1699.625" y1="122.0" x2="1523.5" y2="145.0" style="stroke:black; stroke-width:1px;" />
<line x1="1523.5" y1="151.0" x2="1487.5" y2="174.0" style="stroke:black; stroke-width:1px;" />
<line x1="1487.5" y1="180.0" x2="1487.5" y2="203.0" style="stroke:black; stroke-width:1px;" />
<line x1="1523.5" y1="151.0" x2="1523.5" y2="174.0" style="stroke:black; stroke-width:1px;" />
<line x1="1523.5" y1="180.0" x2="1523.5" y2="203.0" style="stroke:black; stroke-width:1px;" />
<line x1="1523.5" y1="151.0" x2="1559.5" y2="174.0" style="stroke:black; stroke-width:1px;" />
<line x1="1559.5" y1="180.0" x2="1559.5" y2="203.0" style="stroke:black; stroke-width:1px;" />
<line x1="1699.625" y1="122.0" x2="1577.0833333333335" y2="145.0" style="stroke:black; stroke-width:1px;" />
<line x1="1699.625" y1="122.0" x2="1611.1666666666667" y2="145.0" style="stroke:black; stroke-width:1px;" />
<line x1="1699.625" y1="122.0" x2="1657.75" y2="145.0" style="stroke:black; stroke-width:1px;" />
<line x1="1657.75" y1="151.0" x2="1657.75" y2="174.0" style="stroke:black; stroke-width:1px;" />
<line x1="1657.75" y1="180.0" x2="1583.0" y2="203.0" style="stroke:black; stroke-width:1px;" />
<line x1="1657.75" y1="180.0" x2="1605.0" y2="203.0" style="stroke:black; stroke-width:1px;" />
<line x1="1657.75" y1="180.0" x2="1630.5" y2="203.0" style="stroke:black; stroke-width:1px;" />
<line x1="1657.75" y1="180.0" x2="1656.5" y2="203.0" style="stroke:black; stroke-width:1px;" />
<line x1="1657.75" y1="180.0" x2="1694.5" y2="203.0" style="stroke:black; stroke-width:1px;" />
<line x1="1694.5" y1="209.0" x2="1694.5" y2="232.0" style="stroke:black; stroke-width:1px;" />
<line x1="1694.5" y1="238.0" x2="1694.5" y2="261.0" style="stroke:black; stroke-width:1px;" />
<line x1="1657.75" y1="180.0" x2="1732.5" y2="203.0" style="stroke:black; stroke-width:1px;" />
<line x1="1699.625" y1="122.0" x2="1787.25" y2="145.0" style="stroke:black; stroke-width:1px;" />
<line x1="1787.25" y1="151.0" x2="1787.25" y2="174.0" style="stroke:black; stroke-width:1px;" />
<line x1="1787.25" y1="180.0" x2="1756.5" y2="203.0" style="stroke:black; stroke-width:1px;" />
<line x1="1787.25" y1="180.0" x2="1783.5" y2="203.0" style="stroke:black; stroke-width:1px;" />
<line x1="1787.25" y1="180.0" x2="1818.0" y2="203.0" style="stroke:black; stroke-width:1px;" />
<line x1="1818.0" y1="209.0" x2="1782.0" y2="232.0" style="stroke:black; stroke-width:1px;" />
<line x1="1782.0" y1="238.0" x2="1782.0" y2="261.0" style="stroke:black; stroke-width:1px;" />
<line x1="1818.0" y1="209.0" x2="1818.0" y2="232.0" style="stroke:black; stroke-width:1px;" />
<line x1="1818.0" y1="238.0" x2="1818.0" y2="261.0" style="stroke:black; stroke-width:1px;" />
<line x1="1818.0" y1="209.0" x2="1854.0" y2="232.0" style="stroke:black; stroke-width:1px;" />
<line x1="1854.0" y1="238.0" x2="1854.0" y2="261.0" style="stroke:black; stroke-width:1px;" />
<line x1="1699.625" y1="122.0" x2="1907.75" y2="145.0" style="stroke:black; stroke-width:1px;" />
<line x1="1907.75" y1="151.0" x2="1907.75" y2="174.0" style="stroke:black; stroke-width:1px;" />
<line x1="1907.75" y1="180.0" x2="1858.0" y2="203.0" style="stroke:black; stroke-width:1px;" />
<line x1="1907.75" y1="180.0" x2="1881.5" y2="203.0" style="stroke:black; stroke-width:1px;" />
<line x1="1907.75" y1="180.0" x2="1919.5" y2="203.0" style="stroke:black; stroke-width:1px;" />
<line x1="1919.5" y1="209.0" x2="1919.5" y2="232.0" style="stroke:black; stroke-width:1px;" />
<line x1="1919.5" y1="238.0" x2="1919.5" y2="261.0" style="stroke:black; stroke-width:1px;" />
<line x1="1907.75" y1="180.0" x2="1957.5" y2="203.0" style="stroke:black; stroke-width:1px;" />
<line x1="1699.625" y1="122.0" x2="1935.25" y2="145.0" style="stroke:black; stroke-width:1px;" />
<line x1="1443.3125" y1="64.0" x2="1727.125" y2="87.0" style="stroke:black; stroke-width:1px;" />
<rect x="270.0" y="232.0" width="10.0" height="12.0" style="fill:orange; stroke:rgb(0,0,0);" rx="1"/>
<text x="272" y="241" style="font-family:sans-serif;font-size:10px;">
y
</text>
<rect x="1422.3125" y="58.0" width="42.0" height="12.0" style="fill:orange; stroke:rgb(0,0,0);" rx="1"/>
<text x="1424" y="67" style="font-family:sans-serif;font-size:10px;">
function
</text>
<rect x="1096.25" y="232.0" width="7.0" height="12.0" style="fill:orange; stroke:rgb(0,0,0);" rx="1"/>
<text x="1098" y="241" style="font-family:sans-serif;font-size:10px;">
/
</text>
<rect x="480.25" y="203.0" width="30.0" height="12.0" style="fill:orange; stroke:rgb(0,0,0);" rx="1"/>
<text x="482" y="212" style="font-family:sans-serif;font-size:10px;">
value
</text>
<rect x="1077.0" y="116.0" width="31.0" height="12.0" style="fill:orange; stroke:rgb(0,0,0);" rx="1"/>
<text x="1079" y="125" style="font-family:sans-serif;font-size:10px;">
result
</text>
<rect x="1723.125" y="87.0" width="8.0" height="12.0" style="fill:orange; stroke:rgb(0,0,0);" rx="1"/>
<text x="1725" y="96" style="font-family:sans-serif;font-size:10px;">
}
</text>
<rect x="681.0" y="116.0" width="30.0" height="12.0" style="fill:orange; stroke:rgb(0,0,0);" rx="1"/>
<text x="683" y="125" style="font-family:sans-serif;font-size:10px;">
value
</text>
<rect x="198.0" y="232.0" width="10.0" height="12.0" style="fill:orange; stroke:rgb(0,0,0);" rx="1"/>
<text x="200" y="241" style="font-family:sans-serif;font-size:10px;">
x
</text>
<rect x="1058.75" y="232.0" width="10.0" height="12.0" style="fill:orange; stroke:rgb(0,0,0);" rx="1"/>
<text x="1060" y="241" style="font-family:sans-serif;font-size:10px;">
x
</text>
<rect x="1931.25" y="145.0" width="8.0" height="12.0" style="fill:orange; stroke:rgb(0,0,0);" rx="1"/>
<text x="1933" y="154" style="font-family:sans-serif;font-size:10px;">
}
</text>
<rect x="972.375" y="58.0" width="42.0" height="12.0" style="fill:orange; stroke:rgb(0,0,0);" rx="1"/>
<text x="974" y="67" style="font-family:sans-serif;font-size:10px;">
function
</text>
<rect x="1877.5" y="203.0" width="8.0" height="12.0" style="fill:orange; stroke:rgb(0,0,0);" rx="1"/>
<text x="1879" y="212" style="font-family:sans-serif;font-size:10px;">
(
</text>
<rect x="1544.5" y="174.0" width="30.0" height="12.0" style="fill:orange; stroke:rgb(0,0,0);" rx="1"/>
<text x="1546" y="183" style="font-family:sans-serif;font-size:10px;">
value
</text>
<rect x="490.25" y="232.0" width="10.0" height="12.0" style="fill:orange; stroke:rgb(0,0,0);" rx="1"/>
<text x="492" y="241" style="font-family:sans-serif;font-size:10px;">
x
</text>
<rect x="1641.25" y="145.0" width="33.0" height="12.0" style="fill:orange; stroke:rgb(0,0,0);" rx="1"/>
<text x="1643" y="154" style="font-family:sans-serif;font-size:10px;">
action
</text>
<rect x="1012.25" y="116.0" width="30.0" height="12.0" style="fill:orange; stroke:rgb(0,0,0);" rx="1"/>
<text x="1014" y="125" style="font-family:sans-serif;font-size:10px;">
value
</text>
<rect x="1474.5" y="203.0" width="26.0" height="12.0" style="fill:orange; stroke:rgb(0,0,0);" rx="1"/>
<text x="1476" y="212" style="font-family:sans-serif;font-size:10px;">
from
</text>
<rect x="1897.75" y="174.0" width="20.0" height="12.0" style="fill:orange; stroke:rgb(0,0,0);" rx="1"/>
<text x="1899" y="183" style="font-family:sans-serif;font-size:10px;">
call
</text>
<rect x="718.0" y="116.0" width="7.0" height="12.0" style="fill:orange; stroke:rgb(0,0,0);" rx="1"/>
<text x="720" y="125" style="font-family:sans-serif;font-size:10px;">
,
</text>
<rect x="406.25" y="87.0" width="54.0" height="12.0" style="fill:orange; stroke:rgb(0,0,0);" rx="1"/>
<text x="408" y="96" style="font-family:sans-serif;font-size:10px;">
parameter
</text>
<rect x="1776.5" y="203.0" width="14.0" height="12.0" style="fill:orange; stroke:rgb(0,0,0);" rx="1"/>
<text x="1778" y="212" style="font-family:sans-serif;font-size:10px;">
&lt;-
</text>
<rect x="562.25" y="232.0" width="10.0" height="12.0" style="fill:orange; stroke:rgb(0,0,0);" rx="1"/>
<text x="564" y="241" style="font-family:sans-serif;font-size:10px;">
y
</text>
<rect x="429.75" y="116.0" width="7.0" height="12.0" style="fill:orange; stroke:rgb(0,0,0);" rx="1"/>
<text x="431" y="125" style="font-family:sans-serif;font-size:10px;">
,
</text>
<rect x="527.25" y="232.0" width="8.0" height="12.0" style="fill:orange; stroke:rgb(0,0,0);" rx="1"/>
<text x="529" y="241" style="font-family:sans-serif;font-size:10px;">
-
</text>
<rect x="1327.0" y="145.0" width="25.0" height="12.0" style="fill:orange; stroke:rgb(0,0,0);" rx="1"/>
<text x="1329" y="154" style="font-family:sans-serif;font-size:10px;">
print
</text>
<rect x="1374.0" y="145.0" width="54.0" height="12.0" style="fill:orange; stroke:rgb(0,0,0);" rx="1"/>
<text x="1376" y="154" style="font-family:sans-serif;font-size:10px;">
parameter
</text>
<rect x="402.75" y="145.0" width="10.0" height="12.0" style="fill:orange; stroke:rgb(0,0,0);" rx="1"/>
<text x="404" y="154" style="font-family:sans-serif;font-size:10px;">
x
</text>
<rect x="609.5" y="87.0" width="14.0" height="12.0" style="fill:orange; stroke:rgb(0,0,0);" rx="1"/>
<text x="611" y="96" style="font-family:sans-serif;font-size:10px;">
&lt;-
</text>
<rect x="1814.0" y="261.0" width="8.0" height="12.0" style="fill:orange; stroke:rgb(0,0,0);" rx="1"/>
<text x="1816" y="270" style="font-family:sans-serif;font-size:10px;">
-
</text>
<rect x="1652.5" y="203.0" width="8.0" height="12.0" style="fill:orange; stroke:rgb(0,0,0);" rx="1"/>
<text x="1654" y="212" style="font-family:sans-serif;font-size:10px;">
(
</text>
<rect x="178.5" y="145.0" width="37.0" height="12.0" style="fill:orange; stroke:rgb(0,0,0);" rx="1"/>
<text x="180" y="154" style="font-family:sans-serif;font-size:10px;">
return(
</text>
<rect x="732.0" y="116.0" width="30.0" height="12.0" style="fill:orange; stroke:rgb(0,0,0);" rx="1"/>
<text x="734" y="125" style="font-family:sans-serif;font-size:10px;">
value
</text>
<rect x="759.0" y="145.0" width="37.0" height="12.0" style="fill:orange; stroke:rgb(0,0,0);" rx="1"/>
<text x="761" y="154" style="font-family:sans-serif;font-size:10px;">
return(
</text>
<rect x="1687.625" y="116.0" width="24.0" height="12.0" style="fill:orange; stroke:rgb(0,0,0);" rx="1"/>
<text x="1689" y="125" style="font-family:sans-serif;font-size:10px;">
loop
</text>
<rect x="691.0" y="145.0" width="10.0" height="12.0" style="fill:orange; stroke:rgb(0,0,0);" rx="1"/>
<text x="693" y="154" style="font-family:sans-serif;font-size:10px;">
x
</text>
<rect x="1485.0" y="145.0" width="8.0" height="12.0" style="fill:orange; stroke:rgb(0,0,0);" rx="1"/>
<text x="1487" y="154" style="font-family:sans-serif;font-size:10px;">
(
</text>
<rect x="342.25" y="87.0" width="42.0" height="12.0" style="fill:orange; stroke:rgb(0,0,0);" rx="1"/>
<text x="344" y="96" style="font-family:sans-serif;font-size:10px;">
function
</text>
<rect x="850.5" y="232.0" width="10.0" height="12.0" style="fill:orange; stroke:rgb(0,0,0);" rx="1"/>
<text x="852" y="241" style="font-family:sans-serif;font-size:10px;">
y
</text>
<rect x="1130.75" y="232.0" width="10.0" height="12.0" style="fill:orange; stroke:rgb(0,0,0);" rx="1"/>
<text x="1132" y="241" style="font-family:sans-serif;font-size:10px;">
y
</text>
<rect x="1359.0" y="145.0" width="8.0" height="12.0" style="fill:orange; stroke:rgb(0,0,0);" rx="1"/>
<text x="1361" y="154" style="font-family:sans-serif;font-size:10px;">
(
</text>
<rect x="122.625" y="29.0" width="25.0" height="12.0" style="fill:orange; stroke:rgb(0,0,0);" rx="1"/>
<text x="124" y="38" style="font-family:sans-serif;font-size:10px;">
task
</text>
<rect x="225.0" y="203.0" width="28.0" height="12.0" style="fill:orange; stroke:rgb(0,0,0);" rx="1"/>
<text x="227" y="212" style="font-family:sans-serif;font-size:10px;">
math
</text>
<rect x="1083.25" y="145.0" width="33.0" height="12.0" style="fill:orange; stroke:rgb(0,0,0);" rx="1"/>
<text x="1085" y="154" style="font-family:sans-serif;font-size:10px;">
action
</text>
<rect x="470.75" y="145.0" width="37.0" height="12.0" style="fill:orange; stroke:rgb(0,0,0);" rx="1"/>
<text x="472" y="154" style="font-family:sans-serif;font-size:10px;">
return(
</text>
<rect x="1357.1666666666667" y="87.0" width="8.0" height="12.0" style="fill:orange; stroke:rgb(0,0,0);" rx="1"/>
<text x="1359" y="96" style="font-family:sans-serif;font-size:10px;">
{
</text>
<rect x="1500.0" y="145.0" width="47.0" height="12.0" style="fill:orange; stroke:rgb(0,0,0);" rx="1"/>
<text x="1502" y="154" style="font-family:sans-serif;font-size:10px;">
compare
</text>
<rect x="234.0" y="232.0" width="10.0" height="12.0" style="fill:orange; stroke:rgb(0,0,0);" rx="1"/>
<text x="236" y="241" style="font-family:sans-serif;font-size:10px;">
+
</text>
<rect x="1906.5" y="261.0" width="26.0" height="12.0" style="fill:orange; stroke:rgb(0,0,0);" rx="1"/>
<text x="1908" y="270" style="font-family:sans-serif;font-size:10px;">
from
</text>
<rect x="215.25" y="87.0" width="33.0" height="12.0" style="fill:orange; stroke:rgb(0,0,0);" rx="1"/>
<text x="217" y="96" style="font-family:sans-serif;font-size:10px;">
action
</text>
<rect x="1683.125" y="87.0" width="33.0" height="12.0" style="fill:orange; stroke:rgb(0,0,0);" rx="1"/>
<text x="1685" y="96" style="font-family:sans-serif;font-size:10px;">
action
</text>
<rect x="1131.0" y="87.0" width="57.0" height="12.0" style="fill:orange; stroke:rgb(0,0,0);" rx="1"/>
<text x="1133" y="96" style="font-family:sans-serif;font-size:10px;">
countdown
</text>
<rect x="840.5" y="203.0" width="30.0" height="12.0" style="fill:orange; stroke:rgb(0,0,0);" rx="1"/>
<text x="842" y="212" style="font-family:sans-serif;font-size:10px;">
value
</text>
<rect x="1430.8125" y="29.0" width="25.0" height="12.0" style="fill:orange; stroke:rgb(0,0,0);" rx="1"/>
<text x="1432" y="38" style="font-family:sans-serif;font-size:10px;">
task
</text>
<rect x="0.0" y="87.0" width="22.0" height="12.0" style="fill:orange; stroke:rgb(0,0,0);" rx="1"/>
<text x="2" y="96" style="font-family:sans-serif;font-size:10px;">
add
</text>
<rect x="196.83333333333337" y="87.0" width="8.0" height="12.0" style="fill:orange; stroke:rgb(0,0,0);" rx="1"/>
<text x="198" y="96" style="font-family:sans-serif;font-size:10px;">
{
</text>
<rect x="690.125" y="58.0" width="42.0" height="12.0" style="fill:orange; stroke:rgb(0,0,0);" rx="1"/>
<text x="692" y="67" style="font-family:sans-serif;font-size:10px;">
function
</text>
<rect x="188.0" y="203.0" width="30.0" height="12.0" style="fill:orange; stroke:rgb(0,0,0);" rx="1"/>
<text x="190" y="212" style="font-family:sans-serif;font-size:10px;">
value
</text>
<rect x="1388.0" y="203.0" width="26.0" height="12.0" style="fill:orange; stroke:rgb(0,0,0);" rx="1"/>
<text x="1390" y="212" style="font-family:sans-serif;font-size:10px;">
from
</text>
<rect x="974.75" y="87.0" width="54.0" height="12.0" style="fill:orange; stroke:rgb(0,0,0);" rx="1"/>
<text x="976" y="96" style="font-family:sans-serif;font-size:10px;">
parameter
</text>
<rect x="1435.0" y="145.0" width="8.0" height="12.0" style="fill:orange; stroke:rgb(0,0,0);" rx="1"/>
<text x="1437" y="154" style="font-family:sans-serif;font-size:10px;">
)
</text>
<rect x="514.75" y="145.0" width="33.0" height="12.0" style="fill:orange; stroke:rgb(0,0,0);" rx="1"/>
<text x="516" y="154" style="font-family:sans-serif;font-size:10px;">
action
</text>
<rect x="1839.0" y="232.0" width="30.0" height="12.0" style="fill:orange; stroke:rgb(0,0,0);" rx="1"/>
<text x="1841" y="241" style="font-family:sans-serif;font-size:10px;">
value
</text>
<rect x="552.25" y="203.0" width="30.0" height="12.0" style="fill:orange; stroke:rgb(0,0,0);" rx="1"/>
<text x="554" y="212" style="font-family:sans-serif;font-size:10px;">
value
</text>
<rect x="216.25" y="116.0" width="31.0" height="12.0" style="fill:orange; stroke:rgb(0,0,0);" rx="1"/>
<text x="218" y="125" style="font-family:sans-serif;font-size:10px;">
result
</text>
<rect x="1022.25" y="145.0" width="10.0" height="12.0" style="fill:orange; stroke:rgb(0,0,0);" rx="1"/>
<text x="1024" y="154" style="font-family:sans-serif;font-size:10px;">
y
</text>
<rect x="1057.5833333333335" y="87.0" width="8.0" height="12.0" style="fill:orange; stroke:rgb(0,0,0);" rx="1"/>
<text x="1059" y="96" style="font-family:sans-serif;font-size:10px;">
{
</text>
<rect x="260.0" y="203.0" width="30.0" height="12.0" style="fill:orange; stroke:rgb(0,0,0);" rx="1"/>
<text x="262" y="212" style="font-family:sans-serif;font-size:10px;">
value
</text>
<rect x="1743.5" y="203.0" width="26.0" height="12.0" style="fill:orange; stroke:rgb(0,0,0);" rx="1"/>
<text x="1745" y="212" style="font-family:sans-serif;font-size:10px;">
from
</text>
<rect x="1601.5" y="203.0" width="7.0" height="12.0" style="fill:orange; stroke:rgb(0,0,0);" rx="1"/>
<text x="1603" y="212" style="font-family:sans-serif;font-size:10px;">
.
</text>
<rect x="1679.5" y="232.0" width="30.0" height="12.0" style="fill:orange; stroke:rgb(0,0,0);" rx="1"/>
<text x="1681" y="241" style="font-family:sans-serif;font-size:10px;">
value
</text>
<rect x="110.5" y="145.0" width="10.0" height="12.0" style="fill:orange; stroke:rgb(0,0,0);" rx="1"/>
<text x="112" y="154" style="font-family:sans-serif;font-size:10px;">
x
</text>
<rect x="795.75" y="87.0" width="33.0" height="12.0" style="fill:orange; stroke:rgb(0,0,0);" rx="1"/>
<text x="797" y="96" style="font-family:sans-serif;font-size:10px;">
action
</text>
<rect x="161.5" y="145.0" width="10.0" height="12.0" style="fill:orange; stroke:rgb(0,0,0);" rx="1"/>
<text x="163" y="154" style="font-family:sans-serif;font-size:10px;">
y
</text>
<rect x="1891.25" y="145.0" width="33.0" height="12.0" style="fill:orange; stroke:rgb(0,0,0);" rx="1"/>
<text x="1893" y="154" style="font-family:sans-serif;font-size:10px;">
action
</text>
<rect x="776.21875" y="0.0" width="26.0" height="12.0" style="fill:orange; stroke:rgb(0,0,0);" rx="1"/>
<text x="778" y="9" style="font-family:sans-serif;font-size:10px;">
start
</text>
<rect x="1607.1666666666667" y="145.0" width="8.0" height="12.0" style="fill:orange; stroke:rgb(0,0,0);" rx="1"/>
<text x="1609" y="154" style="font-family:sans-serif;font-size:10px;">
{
</text>
<rect x="1039.25" y="145.0" width="37.0" height="12.0" style="fill:orange; stroke:rgb(0,0,0);" rx="1"/>
<text x="1041" y="154" style="font-family:sans-serif;font-size:10px;">
return(
</text>
<rect x="443.75" y="116.0" width="30.0" height="12.0" style="fill:orange; stroke:rgb(0,0,0);" rx="1"/>
<text x="445" y="125" style="font-family:sans-serif;font-size:10px;">
value
</text>
<rect x="400.875" y="58.0" width="42.0" height="12.0" style="fill:orange; stroke:rgb(0,0,0);" rx="1"/>
<text x="402" y="67" style="font-family:sans-serif;font-size:10px;">
function
</text>
<rect x="971.25" y="145.0" width="10.0" height="12.0" style="fill:orange; stroke:rgb(0,0,0);" rx="1"/>
<text x="973" y="154" style="font-family:sans-serif;font-size:10px;">
x
</text>
<rect x="1341.5833333333335" y="87.0" width="8.0" height="12.0" style="fill:orange; stroke:rgb(0,0,0);" rx="1"/>
<text x="1343" y="96" style="font-family:sans-serif;font-size:10px;">
)
</text>
<rect x="99.0" y="87.0" width="8.0" height="12.0" style="fill:orange; stroke:rgb(0,0,0);" rx="1"/>
<text x="101" y="96" style="font-family:sans-serif;font-size:10px;">
(
</text>
<rect x="151.5" y="116.0" width="30.0" height="12.0" style="fill:orange; stroke:rgb(0,0,0);" rx="1"/>
<text x="153" y="125" style="font-family:sans-serif;font-size:10px;">
value
</text>
<rect x="758.9166666666666" y="87.0" width="8.0" height="12.0" style="fill:orange; stroke:rgb(0,0,0);" rx="1"/>
<text x="760" y="96" style="font-family:sans-serif;font-size:10px;">
)
</text>
<rect x="114.0" y="87.0" width="54.0" height="12.0" style="fill:orange; stroke:rgb(0,0,0);" rx="1"/>
<text x="116" y="96" style="font-family:sans-serif;font-size:10px;">
parameter
</text>
<rect x="815.5" y="232.0" width="8.0" height="12.0" style="fill:orange; stroke:rgb(0,0,0);" rx="1"/>
<text x="817" y="241" style="font-family:sans-serif;font-size:10px;">
*
</text>
<rect x="1292.0" y="116.0" width="30.0" height="12.0" style="fill:orange; stroke:rgb(0,0,0);" rx="1"/>
<text x="1294" y="125" style="font-family:sans-serif;font-size:10px;">
value
</text>
<rect x="1728.5" y="203.0" width="8.0" height="12.0" style="fill:orange; stroke:rgb(0,0,0);" rx="1"/>
<text x="1730" y="212" style="font-family:sans-serif;font-size:10px;">
)
</text>
<rect x="391.25" y="87.0" width="8.0" height="12.0" style="fill:orange; stroke:rgb(0,0,0);" rx="1"/>
<text x="393" y="96" style="font-family:sans-serif;font-size:10px;">
(
</text>
<rect x="1216.0" y="87.0" width="42.0" height="12.0" style="fill:orange; stroke:rgb(0,0,0);" rx="1"/>
<text x="1218" y="96" style="font-family:sans-serif;font-size:10px;">
function
</text>
<rect x="805.5" y="203.0" width="28.0" height="12.0" style="fill:orange; stroke:rgb(0,0,0);" rx="1"/>
<text x="807" y="212" style="font-family:sans-serif;font-size:10px;">
math
</text>
<rect x="1757.25" y="174.0" width="60.0" height="12.0" style="fill:orange; stroke:rgb(0,0,0);" rx="1"/>
<text x="1759" y="183" style="font-family:sans-serif;font-size:10px;">
assignment
</text>
<rect x="1647.75" y="174.0" width="20.0" height="12.0" style="fill:orange; stroke:rgb(0,0,0);" rx="1"/>
<text x="1649" y="183" style="font-family:sans-serif;font-size:10px;">
call
</text>
<rect x="321.25" y="87.0" width="14.0" height="12.0" style="fill:orange; stroke:rgb(0,0,0);" rx="1"/>
<text x="323" y="96" style="font-family:sans-serif;font-size:10px;">
&lt;-
</text>
<rect x="554.75" y="145.0" width="8.0" height="12.0" style="fill:orange; stroke:rgb(0,0,0);" rx="1"/>
<text x="556" y="154" style="font-family:sans-serif;font-size:10px;">
)
</text>
<rect x="1120.75" y="203.0" width="30.0" height="12.0" style="fill:orange; stroke:rgb(0,0,0);" rx="1"/>
<text x="1122" y="212" style="font-family:sans-serif;font-size:10px;">
value
</text>
<rect x="50.0" y="87.0" width="42.0" height="12.0" style="fill:orange; stroke:rgb(0,0,0);" rx="1"/>
<text x="52" y="96" style="font-family:sans-serif;font-size:10px;">
function
</text>
<rect x="222.5" y="145.0" width="33.0" height="12.0" style="fill:orange; stroke:rgb(0,0,0);" rx="1"/>
<text x="224" y="154" style="font-family:sans-serif;font-size:10px;">
action
</text>
<rect x="114.125" y="58.0" width="42.0" height="12.0" style="fill:orange; stroke:rgb(0,0,0);" rx="1"/>
<text x="116" y="67" style="font-family:sans-serif;font-size:10px;">
function
</text>
<rect x="1615.5" y="203.0" width="30.0" height="12.0" style="fill:orange; stroke:rgb(0,0,0);" rx="1"/>
<text x="1617" y="212" style="font-family:sans-serif;font-size:10px;">
sleep
</text>
<rect x="1450.0" y="145.0" width="28.0" height="12.0" style="fill:orange; stroke:rgb(0,0,0);" rx="1"/>
<text x="1452" y="154" style="font-family:sans-serif;font-size:10px;">
while
</text>
<rect x="1845.5" y="203.0" width="25.0" height="12.0" style="fill:orange; stroke:rgb(0,0,0);" rx="1"/>
<text x="1847" y="212" style="font-family:sans-serif;font-size:10px;">
print
</text>
<rect x="1849.0" y="261.0" width="10.0" height="12.0" style="fill:orange; stroke:rgb(0,0,0);" rx="1"/>
<text x="1851" y="270" style="font-family:sans-serif;font-size:10px;">
1
</text>
<rect x="630.5" y="87.0" width="42.0" height="12.0" style="fill:orange; stroke:rgb(0,0,0);" rx="1"/>
<text x="632" y="96" style="font-family:sans-serif;font-size:10px;">
function
</text>
<rect x="1573.0833333333335" y="145.0" width="8.0" height="12.0" style="fill:orange; stroke:rgb(0,0,0);" rx="1"/>
<text x="1575" y="154" style="font-family:sans-serif;font-size:10px;">
)
</text>
<rect x="843.0" y="145.0" width="8.0" height="12.0" style="fill:orange; stroke:rgb(0,0,0);" rx="1"/>
<text x="845" y="154" style="font-family:sans-serif;font-size:10px;">
)
</text>
<rect x="1554.5" y="203.0" width="10.0" height="12.0" style="fill:orange; stroke:rgb(0,0,0);" rx="1"/>
<text x="1556" y="212" style="font-family:sans-serif;font-size:10px;">
0
</text>
<rect x="742.0" y="145.0" width="10.0" height="12.0" style="fill:orange; stroke:rgb(0,0,0);" rx="1"/>
<text x="744" y="154" style="font-family:sans-serif;font-size:10px;">
y
</text>
<rect x="850.75" y="87.0" width="32.0" height="12.0" style="fill:orange; stroke:rgb(0,0,0);" rx="1"/>
<text x="852" y="96" style="font-family:sans-serif;font-size:10px;">
divide
</text>
<rect x="910.75" y="87.0" width="42.0" height="12.0" style="fill:orange; stroke:rgb(0,0,0);" rx="1"/>
<text x="912" y="96" style="font-family:sans-serif;font-size:10px;">
function
</text>
<rect x="835.75" y="87.0" width="8.0" height="12.0" style="fill:orange; stroke:rgb(0,0,0);" rx="1"/>
<text x="837" y="96" style="font-family:sans-serif;font-size:10px;">
}
</text>
<rect x="1085.75" y="203.0" width="28.0" height="12.0" style="fill:orange; stroke:rgb(0,0,0);" rx="1"/>
<text x="1087" y="212" style="font-family:sans-serif;font-size:10px;">
math
</text>
<rect x="1372.75" y="87.0" width="33.0" height="12.0" style="fill:orange; stroke:rgb(0,0,0);" rx="1"/>
<text x="1374" y="96" style="font-family:sans-serif;font-size:10px;">
action
</text>
<rect x="796.75" y="116.0" width="31.0" height="12.0" style="fill:orange; stroke:rgb(0,0,0);" rx="1"/>
<text x="798" y="125" style="font-family:sans-serif;font-size:10px;">
result
</text>
<rect x="1076.0" y="87.0" width="33.0" height="12.0" style="fill:orange; stroke:rgb(0,0,0);" rx="1"/>
<text x="1078" y="96" style="font-family:sans-serif;font-size:10px;">
action
</text>
<rect x="409.375" y="29.0" width="25.0" height="12.0" style="fill:orange; stroke:rgb(0,0,0);" rx="1"/>
<text x="411" y="38" style="font-family:sans-serif;font-size:10px;">
task
</text>
<rect x="1770.75" y="145.0" width="33.0" height="12.0" style="fill:orange; stroke:rgb(0,0,0);" rx="1"/>
<text x="1772" y="154" style="font-family:sans-serif;font-size:10px;">
action
</text>
<rect x="1797.5" y="203.0" width="41.0" height="12.0" style="fill:orange; stroke:rgb(0,0,0);" rx="1"/>
<text x="1799" y="212" style="font-family:sans-serif;font-size:10px;">
operate
</text>
<rect x="1116.0" y="87.0" width="8.0" height="12.0" style="fill:orange; stroke:rgb(0,0,0);" rx="1"/>
<text x="1118" y="96" style="font-family:sans-serif;font-size:10px;">
}
</text>
<rect x="1517.0" y="203.0" width="13.0" height="12.0" style="fill:orange; stroke:rgb(0,0,0);" rx="1"/>
<text x="1519" y="212" style="font-family:sans-serif;font-size:10px;">
!=
</text>
<rect x="998.25" y="116.0" width="7.0" height="12.0" style="fill:orange; stroke:rgb(0,0,0);" rx="1"/>
<text x="1000" y="125" style="font-family:sans-serif;font-size:10px;">
,
</text>
<rect x="1509.5" y="174.0" width="28.0" height="12.0" style="fill:orange; stroke:rgb(0,0,0);" rx="1"/>
<text x="1511" y="183" style="font-family:sans-serif;font-size:10px;">
math
</text>
<rect x="1953.5" y="203.0" width="8.0" height="12.0" style="fill:orange; stroke:rgb(0,0,0);" rx="1"/>
<text x="1955" y="212" style="font-family:sans-serif;font-size:10px;">
)
</text>
<rect x="679.5" y="87.0" width="8.0" height="12.0" style="fill:orange; stroke:rgb(0,0,0);" rx="1"/>
<text x="681" y="96" style="font-family:sans-serif;font-size:10px;">
(
</text>
<rect x="1123.25" y="145.0" width="8.0" height="12.0" style="fill:orange; stroke:rgb(0,0,0);" rx="1"/>
<text x="1125" y="154" style="font-family:sans-serif;font-size:10px;">
)
</text>
<rect x="1769.0" y="261.0" width="26.0" height="12.0" style="fill:orange; stroke:rgb(0,0,0);" rx="1"/>
<text x="1771" y="270" style="font-family:sans-serif;font-size:10px;">
from
</text>
<rect x="1767.0" y="232.0" width="30.0" height="12.0" style="fill:orange; stroke:rgb(0,0,0);" rx="1"/>
<text x="1769" y="241" style="font-family:sans-serif;font-size:10px;">
value
</text>
<rect x="100.5" y="116.0" width="30.0" height="12.0" style="fill:orange; stroke:rgb(0,0,0);" rx="1"/>
<text x="102" y="125" style="font-family:sans-serif;font-size:10px;">
value
</text>
<rect x="1039.1666666666667" y="87.0" width="8.0" height="12.0" style="fill:orange; stroke:rgb(0,0,0);" rx="1"/>
<text x="1041" y="96" style="font-family:sans-serif;font-size:10px;">
)
</text>
<rect x="1386.0" y="174.0" width="30.0" height="12.0" style="fill:orange; stroke:rgb(0,0,0);" rx="1"/>
<text x="1388" y="183" style="font-family:sans-serif;font-size:10px;">
value
</text>
<rect x="1804.0" y="232.0" width="28.0" height="12.0" style="fill:orange; stroke:rgb(0,0,0);" rx="1"/>
<text x="1806" y="241" style="font-family:sans-serif;font-size:10px;">
math
</text>
<rect x="508.5" y="116.0" width="31.0" height="12.0" style="fill:orange; stroke:rgb(0,0,0);" rx="1"/>
<text x="510" y="125" style="font-family:sans-serif;font-size:10px;">
result
</text>
<rect x="799.0" y="174.0" width="41.0" height="12.0" style="fill:orange; stroke:rgb(0,0,0);" rx="1"/>
<text x="801" y="183" style="font-family:sans-serif;font-size:10px;">
operate
</text>
<rect x="1667.5" y="203.0" width="54.0" height="12.0" style="fill:orange; stroke:rgb(0,0,0);" rx="1"/>
<text x="1669" y="212" style="font-family:sans-serif;font-size:10px;">
parameter
</text>
<rect x="507.5" y="87.0" width="33.0" height="12.0" style="fill:orange; stroke:rgb(0,0,0);" rx="1"/>
<text x="509" y="96" style="font-family:sans-serif;font-size:10px;">
action
</text>
<rect x="1195.0" y="87.0" width="14.0" height="12.0" style="fill:orange; stroke:rgb(0,0,0);" rx="1"/>
<text x="1197" y="96" style="font-family:sans-serif;font-size:10px;">
&lt;-
</text>
<rect x="1294.0" y="145.0" width="26.0" height="12.0" style="fill:orange; stroke:rgb(0,0,0);" rx="1"/>
<text x="1296" y="154" style="font-family:sans-serif;font-size:10px;">
from
</text>
<rect x="959.75" y="87.0" width="8.0" height="12.0" style="fill:orange; stroke:rgb(0,0,0);" rx="1"/>
<text x="961" y="96" style="font-family:sans-serif;font-size:10px;">
(
</text>
<rect x="1571.5" y="203.0" width="23.0" height="12.0" style="fill:orange; stroke:rgb(0,0,0);" rx="1"/>
<text x="1573" y="212" style="font-family:sans-serif;font-size:10px;">
Sys
</text>
<rect x="778.5" y="232.0" width="10.0" height="12.0" style="fill:orange; stroke:rgb(0,0,0);" rx="1"/>
<text x="780" y="241" style="font-family:sans-serif;font-size:10px;">
x
</text>
<rect x="1472.5" y="174.0" width="30.0" height="12.0" style="fill:orange; stroke:rgb(0,0,0);" rx="1"/>
<text x="1474" y="183" style="font-family:sans-serif;font-size:10px;">
value
</text>
<rect x="453.75" y="145.0" width="10.0" height="12.0" style="fill:orange; stroke:rgb(0,0,0);" rx="1"/>
<text x="455" y="154" style="font-family:sans-serif;font-size:10px;">
y
</text>
<rect x="489.08333333333337" y="87.0" width="8.0" height="12.0" style="fill:orange; stroke:rgb(0,0,0);" rx="1"/>
<text x="491" y="96" style="font-family:sans-serif;font-size:10px;">
{
</text>
<rect x="1689.5" y="261.0" width="10.0" height="12.0" style="fill:orange; stroke:rgb(0,0,0);" rx="1"/>
<text x="1691" y="270" style="font-family:sans-serif;font-size:10px;">
1
</text>
<rect x="218.5" y="174.0" width="41.0" height="12.0" style="fill:orange; stroke:rgb(0,0,0);" rx="1"/>
<text x="220" y="183" style="font-family:sans-serif;font-size:10px;">
operate
</text>
<rect x="803.0" y="145.0" width="33.0" height="12.0" style="fill:orange; stroke:rgb(0,0,0);" rx="1"/>
<text x="805" y="154" style="font-family:sans-serif;font-size:10px;">
action
</text>
<rect x="517.25" y="203.0" width="28.0" height="12.0" style="fill:orange; stroke:rgb(0,0,0);" rx="1"/>
<text x="519" y="212" style="font-family:sans-serif;font-size:10px;">
math
</text>
<rect x="547.5" y="87.0" width="8.0" height="12.0" style="fill:orange; stroke:rgb(0,0,0);" rx="1"/>
<text x="549" y="96" style="font-family:sans-serif;font-size:10px;">
}
</text>
<rect x="777.3333333333334" y="87.0" width="8.0" height="12.0" style="fill:orange; stroke:rgb(0,0,0);" rx="1"/>
<text x="779" y="96" style="font-family:sans-serif;font-size:10px;">
{
</text>
<rect x="392.75" y="116.0" width="30.0" height="12.0" style="fill:orange; stroke:rgb(0,0,0);" rx="1"/>
<text x="394" y="125" style="font-family:sans-serif;font-size:10px;">
value
</text>
<rect x="178.41666666666663" y="87.0" width="8.0" height="12.0" style="fill:orange; stroke:rgb(0,0,0);" rx="1"/>
<text x="180" y="96" style="font-family:sans-serif;font-size:10px;">
)
</text>
<rect x="768.5" y="203.0" width="30.0" height="12.0" style="fill:orange; stroke:rgb(0,0,0);" rx="1"/>
<text x="770" y="212" style="font-family:sans-serif;font-size:10px;">
value
</text>
<rect x="1079.25" y="174.0" width="41.0" height="12.0" style="fill:orange; stroke:rgb(0,0,0);" rx="1"/>
<text x="1081" y="183" style="font-family:sans-serif;font-size:10px;">
operate
</text>
<rect x="1379.25" y="116.0" width="20.0" height="12.0" style="fill:orange; stroke:rgb(0,0,0);" rx="1"/>
<text x="1381" y="125" style="font-family:sans-serif;font-size:10px;">
call
</text>
<rect x="29.0" y="87.0" width="14.0" height="12.0" style="fill:orange; stroke:rgb(0,0,0);" rx="1"/>
<text x="31" y="96" style="font-family:sans-serif;font-size:10px;">
&lt;-
</text>
<rect x="980.875" y="29.0" width="25.0" height="12.0" style="fill:orange; stroke:rgb(0,0,0);" rx="1"/>
<text x="982" y="38" style="font-family:sans-serif;font-size:10px;">
task
</text>
<rect x="1280.0" y="87.0" width="54.0" height="12.0" style="fill:orange; stroke:rgb(0,0,0);" rx="1"/>
<text x="1282" y="96" style="font-family:sans-serif;font-size:10px;">
parameter
</text>
<rect x="1048.75" y="203.0" width="30.0" height="12.0" style="fill:orange; stroke:rgb(0,0,0);" rx="1"/>
<text x="1050" y="212" style="font-family:sans-serif;font-size:10px;">
value
</text>
<rect x="889.75" y="87.0" width="14.0" height="12.0" style="fill:orange; stroke:rgb(0,0,0);" rx="1"/>
<text x="891" y="96" style="font-family:sans-serif;font-size:10px;">
&lt;-
</text>
<rect x="1904.5" y="232.0" width="30.0" height="12.0" style="fill:orange; stroke:rgb(0,0,0);" rx="1"/>
<text x="1906" y="241" style="font-family:sans-serif;font-size:10px;">
value
</text>
<rect x="137.5" y="116.0" width="7.0" height="12.0" style="fill:orange; stroke:rgb(0,0,0);" rx="1"/>
<text x="139" y="125" style="font-family:sans-serif;font-size:10px;">
,
</text>
<rect x="1892.5" y="203.0" width="54.0" height="12.0" style="fill:orange; stroke:rgb(0,0,0);" rx="1"/>
<text x="1894" y="212" style="font-family:sans-serif;font-size:10px;">
parameter
</text>
<rect x="270.25" y="87.0" width="44.0" height="12.0" style="fill:orange; stroke:rgb(0,0,0);" rx="1"/>
<text x="272" y="96" style="font-family:sans-serif;font-size:10px;">
subtract
</text>
<rect x="698.625" y="29.0" width="25.0" height="12.0" style="fill:orange; stroke:rgb(0,0,0);" rx="1"/>
<text x="700" y="38" style="font-family:sans-serif;font-size:10px;">
task
</text>
<rect x="470.66666666666663" y="87.0" width="8.0" height="12.0" style="fill:orange; stroke:rgb(0,0,0);" rx="1"/>
<text x="472" y="96" style="font-family:sans-serif;font-size:10px;">
)
</text>
<rect x="1265.0" y="87.0" width="8.0" height="12.0" style="fill:orange; stroke:rgb(0,0,0);" rx="1"/>
<text x="1267" y="96" style="font-family:sans-serif;font-size:10px;">
(
</text>
<rect x="562.5" y="87.0" width="40.0" height="12.0" style="fill:orange; stroke:rgb(0,0,0);" rx="1"/>
<text x="564" y="96" style="font-family:sans-serif;font-size:10px;">
multiply
</text>
<rect x="694.5" y="87.0" width="54.0" height="12.0" style="fill:orange; stroke:rgb(0,0,0);" rx="1"/>
<text x="696" y="96" style="font-family:sans-serif;font-size:10px;">
parameter
</text>
<rect x="255.25" y="87.0" width="8.0" height="12.0" style="fill:orange; stroke:rgb(0,0,0);" rx="1"/>
<text x="257" y="96" style="font-family:sans-serif;font-size:10px;">
}
</text>
<rect x="510.75" y="174.0" width="41.0" height="12.0" style="fill:orange; stroke:rgb(0,0,0);" rx="1"/>
<text x="512" y="183" style="font-family:sans-serif;font-size:10px;">
operate
</text>
<rect x="262.5" y="145.0" width="8.0" height="12.0" style="fill:orange; stroke:rgb(0,0,0);" rx="1"/>
<text x="264" y="154" style="font-family:sans-serif;font-size:10px;">
)
</text>
<rect x="961.25" y="116.0" width="30.0" height="12.0" style="fill:orange; stroke:rgb(0,0,0);" rx="1"/>
<text x="963" y="125" style="font-family:sans-serif;font-size:10px;">
value
</text>
</svg>