<svg width="3286.8" height="1170.4" xmlns="http://www.w3.org/2000/svg" xmlns:xlink="http://www.w3.org/1999/xlink"><line x1="814.34375" y1="6.0" x2="152.375" y2="29.0" style="stroke:black; stroke-width:1px;" />
<line x1="152.375" y1="35.0" x2="152.375" y2="58.0" style="stroke:black; stroke-width:1px;" />
<line x1="152.375" y1="64.0" x2="22.5" y2="87.0" style="stroke:black; stroke-width:1px;" />
<line x1="22.5" y1="93.0" x2="22.5" y2="116.0" style="stroke:black; stroke-width:1px;" />
<line x1="152.375" y1="64.0" x2="59.0" y2="87.0" style="stroke:black; stroke-width:1px;" />
<line x1="152.375" y1="64.0" x2="94.0" y2="87.0" style="stroke:black; stroke-width:1px;" />
<line x1="152.375" y1="64.0" x2="126.0" y2="87.0" style="stroke:black; stroke-width:1px;" />
<line x1="152.375" y1="64.0" x2="164.0" y2="87.0" style="stroke:black; stroke-width:1px;" />
<line x1="164.0" y1="93.0" x2="138.5" y2="116.0" style="stroke:black; stroke-width:1px;" />
<line x1="138.5" y1="122.0" x2="138.5" y2="145.0" style="stroke:black; stroke-width:1px;" />
<line x1="164.0" y1="93.0" x2="164.0" y2="116.0" style="stroke:black; stroke-width:1px;" />
<line x1="164.0" y1="93.0" x2="189.5" y2="116.0" style="stroke:black; stroke-width:1px;" />
<line x1="189.5" y1="122.0" x2="189.5" y2="145.0" style="stroke:black; stroke-width:1px;" />
<line x1="152.375" y1="64.0" x2="205.41666666666663" y2="87.0" style="stroke:black; stroke-width:1px;" />
<line x1="152.375" y1="64.0" x2="223.83333333333337" y2="87.0" style="stroke:black; stroke-width:1px;" />
<line x1="152.375" y1="64.0" x2="254.75" y2="87.0" style="stroke:black; stroke-width:1px;" />
<line x1="254.75" y1="93.0" x2="254.75" y2="116.0" style="stroke:black; stroke-width:1px;" />
<line x1="254.75" y1="122.0" x2="220.0" y2="145.0" style="stroke:black; stroke-width:1px;" />
<line x1="254.75" y1="122.0" x2="262.0" y2="145.0" style="stroke:black; stroke-width:1px;" />
<line x1="262.0" y1="151.0" x2="262.0" y2="174.0" style="stroke:black; stroke-width:1px;" />
<line x1="262.0" y1="180.0" x2="226.0" y2="203.0" style="stroke:black; stroke-width:1px;" />
<line x1="226.0" y1="209.0" x2="226.0" y2="232.0" style="stroke:black; stroke-width:1px;" />
<line x1="262.0" y1="180.0" x2="262.0" y2="203.0" style="stroke:black; stroke-width:1px;" />
<line x1="262.0" y1="209.0" x2="262.0" y2="232.0" style="stroke:black; stroke-width:1px;" />
<line x1="262.0" y1="180.0" x2="298.0" y2="203.0" style="stroke:black; stroke-width:1px;" />
<line x1="298.0" y1="209.0" x2="298.0" y2="232.0" style="stroke:black; stroke-width:1px;" />
<line x1="254.75" y1="122.0" x2="289.5" y2="145.0" style="stroke:black; stroke-width:1px;" />
<line x1="152.375" y1="64.0" x2="282.25" y2="87.0" style="stroke:black; stroke-width:1px;" />
<line x1="814.34375" y1="6.0" x2="445.625" y2="29.0" style="stroke:black; stroke-width:1px;" />
<line x1="445.625" y1="35.0" x2="445.625" y2="58.0" style="stroke:black; stroke-width:1px;" />
<line x1="445.625" y1="64.0" x2="315.75" y2="87.0" style="stroke:black; stroke-width:1px;" />
<line x1="315.75" y1="93.0" x2="315.75" y2="116.0" style="stroke:black; stroke-width:1px;" />
<line x1="445.625" y1="64.0" x2="352.25" y2="87.0" style="stroke:black; stroke-width:1px;" />
<line x1="445.625" y1="64.0" x2="387.25" y2="87.0" style="stroke:black; stroke-width:1px;" />
<line x1="445.625" y1="64.0" x2="419.25" y2="87.0" style="stroke:black; stroke-width:1px;" />
<line x1="445.625" y1="64.0" x2="457.25" y2="87.0" style="stroke:black; stroke-width:1px;" />
<line x1="457.25" y1="93.0" x2="431.75" y2="116.0" style="stroke:black; stroke-width:1px;" />
<line x1="431.75" y1="122.0" x2="431.75" y2="145.0" style="stroke:black; stroke-width:1px;" />
<line x1="457.25" y1="93.0" x2="457.25" y2="116.0" style="stroke:black; stroke-width:1px;" />
<line x1="457.25" y1="93.0" x2="482.75" y2="116.0" style="stroke:black; stroke-width:1px;" />
<line x1="482.75" y1="122.0" x2="482.75" y2="145.0" style="stroke:black; stroke-width:1px;" />
<line x1="445.625" y1="64.0" x2="498.66666666666663" y2="87.0" style="stroke:black; stroke-width:1px;" />
<line x1="445.625" y1="64.0" x2="517.0833333333334" y2="87.0" style="stroke:black; stroke-width:1px;" />
<line x1="445.625" y1="64.0" x2="548.0" y2="87.0" style="stroke:black; stroke-width:1px;" />
<line x1="548.0" y1="93.0" x2="548.0" y2="116.0" style="stroke:black; stroke-width:1px;" />
<line x1="548.0" y1="122.0" x2="513.25" y2="145.0" style="stroke:black; stroke-width:1px;" />
<line x1="548.0" y1="122.0" x2="555.25" y2="145.0" style="stroke:black; stroke-width:1px;" />
<line x1="555.25" y1="151.0" x2="555.25" y2="174.0" style="stroke:black; stroke-width:1px;" />
<line x1="555.25" y1="180.0" x2="519.25" y2="203.0" style="stroke:black; stroke-width:1px;" />
<line x1="519.25" y1="209.0" x2="519.25" y2="232.0" style="stroke:black; stroke-width:1px;" />
<line x1="555.25" y1="180.0" x2="555.25" y2="203.0" style="stroke:black; stroke-width:1px;" />
<line x1="555.25" y1="209.0" x2="555.25" y2="232.0" style="stroke:black; stroke-width:1px;" />
<line x1="555.25" y1="180.0" x2="591.25" y2="203.0" style="stroke:black; stroke-width:1px;" />
<line x1="591.25" y1="209.0" x2="591.25" y2="232.0" style="stroke:black; stroke-width:1px;" />
<line x1="548.0" y1="122.0" x2="582.75" y2="145.0" style="stroke:black; stroke-width:1px;" />
<line x1="445.625" y1="64.0" x2="575.5" y2="87.0" style="stroke:black; stroke-width:1px;" />
<line x1="814.34375" y1="6.0" x2="738.875" y2="29.0" style="stroke:black; stroke-width:1px;" />
<line x1="738.875" y1="35.0" x2="738.875" y2="58.0" style="stroke:black; stroke-width:1px;" />
<line x1="738.875" y1="64.0" x2="609.0" y2="87.0" style="stroke:black; stroke-width:1px;" />
<line x1="609.0" y1="93.0" x2="609.0" y2="116.0" style="stroke:black; stroke-width:1px;" />
<line x1="738.875" y1="64.0" x2="645.5" y2="87.0" style="stroke:black; stroke-width:1px;" />
<line x1="738.875" y1="64.0" x2="680.5" y2="87.0" style="stroke:black; stroke-width:1px;" />
<line x1="738.875" y1="64.0" x2="712.5" y2="87.0" style="stroke:black; stroke-width:1px;" />
<line x1="738.875" y1="64.0" x2="750.5" y2="87.0" style="stroke:black; stroke-width:1px;" />
<line x1="750.5" y1="93.0" x2="725.0" y2="116.0" style="stroke:black; stroke-width:1px;" />
<line x1="725.0" y1="122.0" x2="725.0" y2="145.0" style="stroke:black; stroke-width:1px;" />
<line x1="750.5" y1="93.0" x2="750.5" y2="116.0" style="stroke:black; stroke-width:1px;" />
<line x1="750.5" y1="93.0" x2="776.0" y2="116.0" style="stroke:black; stroke-width:1px;" />
<line x1="776.0" y1="122.0" x2="776.0" y2="145.0" style="stroke:black; stroke-width:1px;" />
<line x1="738.875" y1="64.0" x2="791.9166666666666" y2="87.0" style="stroke:black; stroke-width:1px;" />
<line x1="738.875" y1="64.0" x2="810.3333333333334" y2="87.0" style="stroke:black; stroke-width:1px;" />
<line x1="738.875" y1="64.0" x2="841.25" y2="87.0" style="stroke:black; stroke-width:1px;" />
<line x1="841.25" y1="93.0" x2="841.25" y2="116.0" style="stroke:black; stroke-width:1px;" />
<line x1="841.25" y1="122.0" x2="806.5" y2="145.0" style="stroke:black; stroke-width:1px;" />
<line x1="841.25" y1="122.0" x2="848.5" y2="145.0" style="stroke:black; stroke-width:1px;" />
<line x1="848.5" y1="151.0" x2="848.5" y2="174.0" style="stroke:black; stroke-width:1px;" />
<line x1="848.5" y1="180.0" x2="812.5" y2="203.0" style="stroke:black; stroke-width:1px;" />
<line x1="812.5" y1="209.0" x2="812.5" y2="232.0" style="stroke:black; stroke-width:1px;" />
<line x1="848.5" y1="180.0" x2="848.5" y2="203.0" style="stroke:black; stroke-width:1px;" />
<line x1="848.5" y1="209.0" x2="848.5" y2="232.0" style="stroke:black; stroke-width:1px;" />
<line x1="848.5" y1="180.0" x2="884.5" y2="203.0" style="stroke:black; stroke-width:1px;" />
<line x1="884.5" y1="209.0" x2="884.5" y2="232.0" style="stroke:black; stroke-width:1px;" />
<line x1="841.25" y1="122.0" x2="876.0" y2="145.0" style="stroke:black; stroke-width:1px;" />
<line x1="738.875" y1="64.0" x2="868.75" y2="87.0" style="stroke:black; stroke-width:1px;" />
<line x1="814.34375" y1="6.0" x2="1032.125" y2="29.0" style="stroke:black; stroke-width:1px;" />
<line x1="1032.125" y1="35.0" x2="1032.125" y2="58.0" style="stroke:black; stroke-width:1px;" />
<line x1="1032.125" y1="64.0" x2="902.25" y2="87.0" style="stroke:black; stroke-width:1px;" />
<line x1="902.25" y1="93.0" x2="902.25" y2="116.0" style="stroke:black; stroke-width:1px;" />
<line x1="1032.125" y1="64.0" x2="938.75" y2="87.0" style="stroke:black; stroke-width:1px;" />
<line x1="1032.125" y1="64.0" x2="973.75" y2="87.0" style="stroke:black; stroke-width:1px;" />
<line x1="1032.125" y1="64.0" x2="1005.75" y2="87.0" style="stroke:black; stroke-width:1px;" />
<line x1="1032.125" y1="64.0" x2="1043.75" y2="87.0" style="stroke:black; stroke-width:1px;" />
<line x1="1043.75" y1="93.0" x2="1018.25" y2="116.0" style="stroke:black; stroke-width:1px;" />
<line x1="1018.25" y1="122.0" x2="1018.25" y2="145.0" style="stroke:black; stroke-width:1px;" />
<line x1="1043.75" y1="93.0" x2="1043.75" y2="116.0" style="stroke:black; stroke-width:1px;" />
<line x1="1043.75" y1="93.0" x2="1069.25" y2="116.0" style="stroke:black; stroke-width:1px;" />
<line x1="1069.25" y1="122.0" x2="1069.25" y2="145.0" style="stroke:black; stroke-width:1px;" />
<line x1="1032.125" y1="64.0" x2="1085.1666666666665" y2="87.0" style="stroke:black; stroke-width:1px;" />
<line x1="1032.125" y1="64.0" x2="1103.5833333333335" y2="87.0" style="stroke:black; stroke-width:1px;" />
<line x1="1032.125" y1="64.0" x2="1134.5" y2="87.0" style="stroke:black; stroke-width:1px;" />
<line x1="1134.5" y1="93.0" x2="1134.5" y2="116.0" style="stroke:black; stroke-width:1px;" />
<line x1="1134.5" y1="122.0" x2="1099.75" y2="145.0" style="stroke:black; stroke-width:1px;" />
<line x1="1134.5" y1="122.0" x2="1141.75" y2="145.0" style="stroke:black; stroke-width:1px;" />
<line x1="1141.75" y1="151.0" x2="1141.75" y2="174.0" style="stroke:black; stroke-width:1px;" />
<line x1="1141.75" y1="180.0" x2="1105.75" y2="203.0" style="stroke:black; stroke-width:1px;" />
<line x1="1105.75" y1="209.0" x2="1105.75" y2="232.0" style="stroke:black; stroke-width:1px;" />
<line x1="1141.75" y1="180.0" x2="1141.75" y2="203.0" style="stroke:black; stroke-width:1px;" />
<line x1="1141.75" y1="209.0" x2="1141.75" y2="232.0" style="stroke:black; stroke-width:1px;" />
<line x1="1141.75" y1="180.0" x2="1177.75" y2="203.0" style="stroke:black; stroke-width:1px;" />
<line x1="1177.75" y1="209.0" x2="1177.75" y2="232.0" style="stroke:black; stroke-width:1px;" />
<line x1="1134.5" y1="122.0" x2="1169.25" y2="145.0" style="stroke:black; stroke-width:1px;" />
<line x1="1032.125" y1="64.0" x2="1162.0" y2="87.0" style="stroke:black; stroke-width:1px;" />
<line x1="814.34375" y1="6.0" x2="1476.3125" y2="29.0" style="stroke:black; stroke-width:1px;" />
<line x1="1476.3125" y1="35.0" x2="1476.3125" y2="58.0" style="stroke:black; stroke-width:1px;" />
<line x1="1476.3125" y1="64.0" x2="1195.5" y2="87.0" style="stroke:black; stroke-width:1px;" />
<line x1="1195.5" y1="93.0" x2="1195.5" y2="116.0" style="stroke:black; stroke-width:1px;" />
<line x1="1476.3125" y1="64.0" x2="1232.0" y2="87.0" style="stroke:black; stroke-width:1px;" />
<line x1="1476.3125" y1="64.0" x2="1267.0" y2="87.0" style="stroke:black; stroke-width:1px;" />
<line x1="1476.3125" y1="64.0" x2="1299.0" y2="87.0" style="stroke:black; stroke-width:1px;" />
<line x1="1476.3125" y1="64.0" x2="1337.0" y2="87.0" style="stroke:black; stroke-width:1px;" />
<line x1="1337.0" y1="93.0" x2="1337.0" y2="116.0" style="stroke:black; stroke-width:1px;" />
<line x1="1337.0" y1="122.0" x2="1337.0" y2="145.0" style="stroke:black; stroke-width:1px;" />
<line x1="1476.3125" y1="64.0" x2="1375.5833333333335" y2="87.0" style="stroke:black; stroke-width:1px;" />
<line x1="1476.3125" y1="64.0" x2="1391.1666666666667" y2="87.0" style="stroke:black; stroke-width:1px;" />
<line x1="1476.3125" y1="64.0" x2="1419.25" y2="87.0" style="stroke:black; stroke-width:1px;" />
<line x1="1419.25" y1="93.0" x2="1419.25" y2="116.0" style="stroke:black; stroke-width:1px;" />
<line x1="1419.25" y1="122.0" x2="1369.5" y2="145.0" style="stroke:black; stroke-width:1px;" />
<line x1="1419.25" y1="122.0" x2="1393.0" y2="145.0" style="stroke:black; stroke-width:1px;" />
<line x1="1419.25" y1="122.0" x2="1431.0" y2="145.0" style="stroke:black; stroke-width:1px;" />
<line x1="1431.0" y1="151.0" x2="1431.0" y2="174.0" style="stroke:black; stroke-width:1px;" />
<line x1="1431.0" y1="180.0" x2="1431.0" y2="203.0" style="stroke:black; stroke-width:1px;" />
<line x1="1419.25" y1="122.0" x2="1469.0" y2="145.0" style="stroke:black; stroke-width:1px;" />
<line x1="1476.3125" y1="64.0" x2="1729.625" y2="87.0" style="stroke:black; stroke-width:1px;" />
<line x1="1729.625" y1="93.0" x2="1729.625" y2="116.0" style="stroke:black; stroke-width:1px;" />
<line x1="1729.625" y1="122.0" x2="1494.0" y2="145.0" style="stroke:black; stroke-width:1px;" />
<line x1="1729.625" y1="122.0" x2="1519.0" y2="145.0" style="stroke:black; stroke-width:1px;" />
<line x1="1729.625" y1="122.0" x2="1553.5" y2="145.0" style="stroke:black; stroke-width:1px;" />
<line x1="1553.5" y1="151.0" x2="1517.5" y2="174.0" style="stroke:black; stroke-width:1px;" />
<line x1="1517.5" y1="180.0" x2="1517.5" y2="203.0" style="stroke:black; stroke-width:1px;" />
<line x1="1553.5" y1="151.0" x2="1553.5" y2="174.0" style="stroke:black; stroke-width:1px;" />
<line x1="1553.5" y1="180.0" x2="1553.5" y2="203.0" style="stroke:black; stroke-width:1px;" />
<line x1="1553.5" y1="151.0" x2="1589.5" y2="174.0" style="stroke:black; stroke-width:1px;" />
<line x1="1589.5" y1="180.0" x2="1589.5" y2="203.0" style="stroke:black; stroke-width:1px;" />
<line x1="1729.625" y1="122.0" x2="1607.0833333333335" y2="145.0" style="stroke:black; stroke-width:1px;" />
<line x1="1729.625" y1="122.0" x2="1641.1666666666667" y2="145.0" style="stroke:black; stroke-width:1px;" />
<line x1="1729.625" y1="122.0" x2="1687.75" y2="145.0" style="stroke:black; stroke-width:1px;" />
<line x1="1687.75" y1="151.0" x2="1687.75" y2="174.0" style="stroke:black; stroke-width:1px;" />
<line x1="1687.75" y1="180.0" x2="1613.0" y2="203.0" style="stroke:black; stroke-width:1px;" />
<line x1="1687.75" y1="180.0" x2="1635.0" y2="203.0" style="stroke:black; stroke-width:1px;" />
<line x1="1687.75" y1="180.0" x2="1660.5" y2="203.0" style="stroke:black; stroke-width:1px;" />
<line x1="1687.75" y1="180.0" x2="1686.5" y2="203.0" style="stroke:black; stroke-width:1px;" />
<line x1="1687.75" y1="180.0" x2="1724.5" y2="203.0" style="stroke:black; stroke-width:1px;" />
<line x1="1724.5" y1="209.0" x2="1724.5" y2="232.0" style="stroke:black; stroke-width:1px;" />
<line x1="1724.5" y1="238.0" x2="1724.5" y2="261.0" style="stroke:black; stroke-width:1px;" />
<line x1="1687.75" y1="180.0" x2="1762.5" y2="203.0" style="stroke:black; stroke-width:1px;" />
<line x1="1729.625" y1="122.0" x2="1817.25" y2="145.0" style="stroke:black; stroke-width:1px;" />
<line x1="1817.25" y1="151.0" x2="1817.25" y2="174.0" style="stroke:black; stroke-width:1px;" />
<line x1="1817.25" y1="180.0" x2="1786.5" y2="203.0" style="stroke:black; stroke-width:1px;" />
<line x1="1817.25" y1="180.0" x2="1813.5" y2="203.0" style="stroke:black; stroke-width:1px;" />
<line x1="1817.25" y1="180.0" x2="1848.0" y2="203.0" style="stroke:black; stroke-width:1px;" />
<line x1="1848.0" y1="209.0" x2="1812.0" y2="232.0" style="stroke:black; stroke-width:1px;" />
<line x1="1812.0" y1="238.0" x2="1812.0" y2="261.0" style="stroke:black; stroke-width:1px;" />
<line x1="1848.0" y1="209.0" x2="1848.0" y2="232.0" style="stroke:black; stroke-width:1px;" />
<line x1="1848.0" y1="238.0" x2="1848.0" y2="261.0" style="stroke:black; stroke-width:1px;" />
<line x1="1848.0" y1="209.0" x2="1884.0" y2="232.0" style="stroke:black; stroke-width:1px;" />
<line x1="1884.0" y1="238.0" x2="1884.0" y2="261.0" style="stroke:black; stroke-width:1px;" />
<line x1="1729.625" y1="122.0" x2="1937.75" y2="145.0" style="stroke:black; stroke-width:1px;" />
<line x1="1937.75" y1="151.0" x2="1937.75" y2="174.0" style="stroke:black; stroke-width:1px;" />
<line x1="1937.75" y1="180.0" x2="1888.0" y2="203.0" style="stroke:black; stroke-width:1px;" />
<line x1="1937.75" y1="180.0" x2="1911.5" y2="203.0" style="stroke:black; stroke-width:1px;" />
<line x1="1937.75" y1="180.0" x2="1949.5" y2="203.0" style="stroke:black; stroke-width:1px;" />
<line x1="1949.5" y1="209.0" x2="1949.5" y2="232.0" style="stroke:black; stroke-width:1px;" />
<line x1="1949.5" y1="238.0" x2="1949.5" y2="261.0" style="stroke:black; stroke-width:1px;" />
<line x1="1937.75" y1="180.0" x2="1987.5" y2="203.0" style="stroke:black; stroke-width:1px;" />
<line x1="1729.625" y1="122.0" x2="1965.25" y2="145.0" style="stroke:black; stroke-width:1px;" />
<line x1="1476.3125" y1="64.0" x2="1757.125" y2="87.0" style="stroke:black; stroke-width:1px;" />
<rect x="221.0" y="232.0" width="10.0" height="12.0" style="fill:orange; stroke:rgb(0,0,0);" rx="1"/>
<text x="223" y="241" style="font-family:sans-serif;font-size:10px;">
x
</text>
<rect x="1875.5" y="203.0" width="25.0" height="12.0" style="fill:orange; stroke:rgb(0,0,0);" rx="1"/>
<text x="1877" y="212" style="font-family:sans-serif;font-size:10px;">
print
</text>
<rect x="1064.25" y="145.0" width="10.0" height="12.0" style="fill:orange; stroke:rgb(0,0,0);" rx="1"/>
<text x="1066" y="154" style="font-family:sans-serif;font-size:10px;">
y
</text>
<rect x="1455.3125" y="58.0" width="42.0" height="12.0" style="fill:orange; stroke:rgb(0,0,0);" rx="1"/>
<text x="1457" y="67" style="font-family:sans-serif;font-size:10px;">
function
</text>
<rect x="467.75" y="116.0" width="30.0" height="12.0" style="fill:orange; stroke:rgb(0,0,0);" rx="1"/>
<text x="469" y="125" style="font-family:sans-serif;font-size:10px;">
value
</text>
<rect x="1127.75" y="203.0" width="28.0" height="12.0" style="fill:orange; stroke:rgb(0,0,0);" rx="1"/>
<text x="1129" y="212" style="font-family:sans-serif;font-size:10px;">
math
</text>
<rect x="1389.0" y="145.0" width="8.0" height="12.0" style="fill:orange; stroke:rgb(0,0,0);" rx="1"/>
<text x="1391" y="154" style="font-family:sans-serif;font-size:10px;">
(
</text>
<rect x="589.0" y="116.0" width="40.0" height="12.0" style="fill:orange; stroke:rgb(0,0,0);" rx="1"/>
<text x="591" y="125" style="font-family:sans-serif;font-size:10px;">
multiply
</text>
<rect x="174.5" y="116.0" width="30.0" height="12.0" style="fill:orange; stroke:rgb(0,0,0);" rx="1"/>
<text x="176" y="125" style="font-family:sans-serif;font-size:10px;">
value
</text>
<rect x="1003.25" y="116.0" width="30.0" height="12.0" style="fill:orange; stroke:rgb(0,0,0);" rx="1"/>
<text x="1005" y="125" style="font-family:sans-serif;font-size:10px;">
value
</text>
<rect x="1719.5" y="261.0" width="10.0" height="12.0" style="fill:orange; stroke:rgb(0,0,0);" rx="1"/>
<text x="1721" y="270" style="font-family:sans-serif;font-size:10px;">
1
</text>
<rect x="1121.25" y="174.0" width="41.0" height="12.0" style="fill:orange; stroke:rgb(0,0,0);" rx="1"/>
<text x="1123" y="183" style="font-family:sans-serif;font-size:10px;">
operate
</text>
<rect x="1797.0" y="232.0" width="30.0" height="12.0" style="fill:orange; stroke:rgb(0,0,0);" rx="1"/>
<text x="1799" y="241" style="font-family:sans-serif;font-size:10px;">
value
</text>
<rect x="1753.125" y="87.0" width="8.0" height="12.0" style="fill:orange; stroke:rgb(0,0,0);" rx="1"/>
<text x="1755" y="96" style="font-family:sans-serif;font-size:10px;">
}
</text>
<rect x="477.75" y="145.0" width="10.0" height="12.0" style="fill:orange; stroke:rgb(0,0,0);" rx="1"/>
<text x="479" y="154" style="font-family:sans-serif;font-size:10px;">
y
</text>
<rect x="1631.5" y="203.0" width="7.0" height="12.0" style="fill:orange; stroke:rgb(0,0,0);" rx="1"/>
<text x="1633" y="212" style="font-family:sans-serif;font-size:10px;">
.
</text>
<rect x="931.75" y="87.0" width="14.0" height="12.0" style="fill:orange; stroke:rgb(0,0,0);" rx="1"/>
<text x="933" y="96" style="font-family:sans-serif;font-size:10px;">
&lt;-
</text>
<rect x="1404.0" y="145.0" width="54.0" height="12.0" style="fill:orange; stroke:rgb(0,0,0);" rx="1"/>
<text x="1406" y="154" style="font-family:sans-serif;font-size:10px;">
parameter
</text>
<rect x="1827.5" y="203.0" width="41.0" height="12.0" style="fill:orange; stroke:rgb(0,0,0);" rx="1"/>
<text x="1829" y="212" style="font-family:sans-serif;font-size:10px;">
operate
</text>
<rect x="586.5" y="87.0" width="45.0" height="12.0" style="fill:orange; stroke:rgb(0,0,0);" rx="1"/>
<text x="588" y="96" style="font-family:sans-serif;font-size:10px;">
operator
</text>
<rect x="426.75" y="145.0" width="10.0" height="12.0" style="fill:orange; stroke:rgb(0,0,0);" rx="1"/>
<text x="428" y="154" style="font-family:sans-serif;font-size:10px;">
x
</text>
<rect x="1697.5" y="203.0" width="54.0" height="12.0" style="fill:orange; stroke:rgb(0,0,0);" rx="1"/>
<text x="1699" y="212" style="font-family:sans-serif;font-size:10px;">
parameter
</text>
<rect x="513.0833333333334" y="87.0" width="8.0" height="12.0" style="fill:orange; stroke:rgb(0,0,0);" rx="1"/>
<text x="515" y="96" style="font-family:sans-serif;font-size:10px;">
{
</text>
<rect x="345.25" y="87.0" width="14.0" height="12.0" style="fill:orange; stroke:rgb(0,0,0);" rx="1"/>
<text x="347" y="96" style="font-family:sans-serif;font-size:10px;">
&lt;-
</text>
<rect x="430.25" y="87.0" width="54.0" height="12.0" style="fill:orange; stroke:rgb(0,0,0);" rx="1"/>
<text x="432" y="96" style="font-family:sans-serif;font-size:10px;">
parameter
</text>
<rect x="1225.0" y="87.0" width="14.0" height="12.0" style="fill:orange; stroke:rgb(0,0,0);" rx="1"/>
<text x="1227" y="96" style="font-family:sans-serif;font-size:10px;">
&lt;-
</text>
<rect x="1322.0" y="116.0" width="30.0" height="12.0" style="fill:orange; stroke:rgb(0,0,0);" rx="1"/>
<text x="1324" y="125" style="font-family:sans-serif;font-size:10px;">
value
</text>
<rect x="293.75" y="116.0" width="44.0" height="12.0" style="fill:orange; stroke:rgb(0,0,0);" rx="1"/>
<text x="295" y="125" style="font-family:sans-serif;font-size:10px;">
subtract
</text>
<rect x="433.125" y="29.0" width="25.0" height="12.0" style="fill:orange; stroke:rgb(0,0,0);" rx="1"/>
<text x="435" y="38" style="font-family:sans-serif;font-size:10px;">
task
</text>
<rect x="1671.25" y="145.0" width="33.0" height="12.0" style="fill:orange; stroke:rgb(0,0,0);" rx="1"/>
<text x="1673" y="154" style="font-family:sans-serif;font-size:10px;">
action
</text>
<rect x="1584.5" y="203.0" width="10.0" height="12.0" style="fill:orange; stroke:rgb(0,0,0);" rx="1"/>
<text x="1586" y="212" style="font-family:sans-serif;font-size:10px;">
0
</text>
<rect x="248.0" y="203.0" width="28.0" height="12.0" style="fill:orange; stroke:rgb(0,0,0);" rx="1"/>
<text x="250" y="212" style="font-family:sans-serif;font-size:10px;">
math
</text>
<rect x="659.5" y="87.0" width="42.0" height="12.0" style="fill:orange; stroke:rgb(0,0,0);" rx="1"/>
<text x="661" y="96" style="font-family:sans-serif;font-size:10px;">
function
</text>
<rect x="797.5" y="203.0" width="30.0" height="12.0" style="fill:orange; stroke:rgb(0,0,0);" rx="1"/>
<text x="799" y="212" style="font-family:sans-serif;font-size:10px;">
value
</text>
<rect x="1787.25" y="174.0" width="60.0" height="12.0" style="fill:orange; stroke:rgb(0,0,0);" rx="1"/>
<text x="1789" y="183" style="font-family:sans-serif;font-size:10px;">
assignment
</text>
<rect x="1463.8125" y="29.0" width="25.0" height="12.0" style="fill:orange; stroke:rgb(0,0,0);" rx="1"/>
<text x="1465" y="38" style="font-family:sans-serif;font-size:10px;">
task
</text>
<rect x="1416.0" y="174.0" width="30.0" height="12.0" style="fill:orange; stroke:rgb(0,0,0);" rx="1"/>
<text x="1418" y="183" style="font-family:sans-serif;font-size:10px;">
value
</text>
<rect x="1717.625" y="116.0" width="24.0" height="12.0" style="fill:orange; stroke:rgb(0,0,0);" rx="1"/>
<text x="1719" y="125" style="font-family:sans-serif;font-size:10px;">
loop
</text>
<rect x="1927.75" y="174.0" width="20.0" height="12.0" style="fill:orange; stroke:rgb(0,0,0);" rx="1"/>
<text x="1929" y="183" style="font-family:sans-serif;font-size:10px;">
call
</text>
<rect x="131.375" y="58.0" width="42.0" height="12.0" style="fill:orange; stroke:rgb(0,0,0);" rx="1"/>
<text x="133" y="67" style="font-family:sans-serif;font-size:10px;">
function
</text>
<rect x="787.9166666666666" y="87.0" width="8.0" height="12.0" style="fill:orange; stroke:rgb(0,0,0);" rx="1"/>
<text x="789" y="96" style="font-family:sans-serif;font-size:10px;">
)
</text>
<rect x="1016.75" y="87.0" width="54.0" height="12.0" style="fill:orange; stroke:rgb(0,0,0);" rx="1"/>
<text x="1018" y="96" style="font-family:sans-serif;font-size:10px;">
parameter
</text>
<rect x="1246.0" y="87.0" width="42.0" height="12.0" style="fill:orange; stroke:rgb(0,0,0);" rx="1"/>
<text x="1248" y="96" style="font-family:sans-serif;font-size:10px;">
function
</text>
<rect x="239.25" y="116.0" width="31.0" height="12.0" style="fill:orange; stroke:rgb(0,0,0);" rx="1"/>
<text x="241" y="125" style="font-family:sans-serif;font-size:10px;">
result
</text>
<rect x="219.83333333333337" y="87.0" width="8.0" height="12.0" style="fill:orange; stroke:rgb(0,0,0);" rx="1"/>
<text x="221" y="96" style="font-family:sans-serif;font-size:10px;">
{
</text>
<rect x="1090.75" y="203.0" width="30.0" height="12.0" style="fill:orange; stroke:rgb(0,0,0);" rx="1"/>
<text x="1092" y="212" style="font-family:sans-serif;font-size:10px;">
value
</text>
<rect x="551.25" y="232.0" width="8.0" height="12.0" style="fill:orange; stroke:rgb(0,0,0);" rx="1"/>
<text x="553" y="241" style="font-family:sans-serif;font-size:10px;">
-
</text>
<rect x="1173.0" y="87.0" width="45.0" height="12.0" style="fill:orange; stroke:rgb(0,0,0);" rx="1"/>
<text x="1175" y="96" style="font-family:sans-serif;font-size:10px;">
operator
</text>
<rect x="0.0" y="87.0" width="45.0" height="12.0" style="fill:orange; stroke:rgb(0,0,0);" rx="1"/>
<text x="2" y="96" style="font-family:sans-serif;font-size:10px;">
operator
</text>
<rect x="1480.0" y="145.0" width="28.0" height="12.0" style="fill:orange; stroke:rgb(0,0,0);" rx="1"/>
<text x="1482" y="154" style="font-family:sans-serif;font-size:10px;">
while
</text>
<rect x="201.41666666666663" y="87.0" width="8.0" height="12.0" style="fill:orange; stroke:rgb(0,0,0);" rx="1"/>
<text x="203" y="96" style="font-family:sans-serif;font-size:10px;">
)
</text>
<rect x="1844.0" y="261.0" width="8.0" height="12.0" style="fill:orange; stroke:rgb(0,0,0);" rx="1"/>
<text x="1846" y="270" style="font-family:sans-serif;font-size:10px;">
-
</text>
<rect x="201.5" y="145.0" width="37.0" height="12.0" style="fill:orange; stroke:rgb(0,0,0);" rx="1"/>
<text x="203" y="154" style="font-family:sans-serif;font-size:10px;">
return(
</text>
<rect x="1357.0" y="145.0" width="25.0" height="12.0" style="fill:orange; stroke:rgb(0,0,0);" rx="1"/>
<text x="1359" y="154" style="font-family:sans-serif;font-size:10px;">
print
</text>
<rect x="1081.25" y="145.0" width="37.0" height="12.0" style="fill:orange; stroke:rgb(0,0,0);" rx="1"/>
<text x="1083" y="154" style="font-family:sans-serif;font-size:10px;">
return(
</text>
<rect x="806.3333333333334" y="87.0" width="8.0" height="12.0" style="fill:orange; stroke:rgb(0,0,0);" rx="1"/>
<text x="808" y="96" style="font-family:sans-serif;font-size:10px;">
{
</text>
<rect x="571.5" y="87.0" width="8.0" height="12.0" style="fill:orange; stroke:rgb(0,0,0);" rx="1"/>
<text x="573" y="96" style="font-family:sans-serif;font-size:10px;">
}
</text>
<rect x="184.5" y="145.0" width="10.0" height="12.0" style="fill:orange; stroke:rgb(0,0,0);" rx="1"/>
<text x="186" y="154" style="font-family:sans-serif;font-size:10px;">
y
</text>
<rect x="788.0" y="145.0" width="37.0" height="12.0" style="fill:orange; stroke:rgb(0,0,0);" rx="1"/>
<text x="790" y="154" style="font-family:sans-serif;font-size:10px;">
return(
</text>
<rect x="1936.5" y="261.0" width="26.0" height="12.0" style="fill:orange; stroke:rgb(0,0,0);" rx="1"/>
<text x="1938" y="270" style="font-family:sans-serif;font-size:10px;">
from
</text>
<rect x="137.0" y="87.0" width="54.0" height="12.0" style="fill:orange; stroke:rgb(0,0,0);" rx="1"/>
<text x="139" y="96" style="font-family:sans-serif;font-size:10px;">
parameter
</text>
<rect x="1295.0" y="87.0" width="8.0" height="12.0" style="fill:orange; stroke:rgb(0,0,0);" rx="1"/>
<text x="1297" y="96" style="font-family:sans-serif;font-size:10px;">
(
</text>
<rect x="952.75" y="87.0" width="42.0" height="12.0" style="fill:orange; stroke:rgb(0,0,0);" rx="1"/>
<text x="954" y="96" style="font-family:sans-serif;font-size:10px;">
function
</text>
<rect x="1310.0" y="87.0" width="54.0" height="12.0" style="fill:orange; stroke:rgb(0,0,0);" rx="1"/>
<text x="1312" y="96" style="font-family:sans-serif;font-size:10px;">
parameter
</text>
<rect x="541.25" y="203.0" width="28.0" height="12.0" style="fill:orange; stroke:rgb(0,0,0);" rx="1"/>
<text x="543" y="212" style="font-family:sans-serif;font-size:10px;">
math
</text>
<rect x="1961.25" y="145.0" width="8.0" height="12.0" style="fill:orange; stroke:rgb(0,0,0);" rx="1"/>
<text x="1963" y="154" style="font-family:sans-serif;font-size:10px;">
}
</text>
<rect x="514.25" y="232.0" width="10.0" height="12.0" style="fill:orange; stroke:rgb(0,0,0);" rx="1"/>
<text x="516" y="241" style="font-family:sans-serif;font-size:10px;">
x
</text>
<rect x="241.5" y="174.0" width="41.0" height="12.0" style="fill:orange; stroke:rgb(0,0,0);" rx="1"/>
<text x="243" y="183" style="font-family:sans-serif;font-size:10px;">
operate
</text>
<rect x="879.75" y="87.0" width="45.0" height="12.0" style="fill:orange; stroke:rgb(0,0,0);" rx="1"/>
<text x="881" y="96" style="font-family:sans-serif;font-size:10px;">
operator
</text>
<rect x="1013.25" y="145.0" width="10.0" height="12.0" style="fill:orange; stroke:rgb(0,0,0);" rx="1"/>
<text x="1015" y="154" style="font-family:sans-serif;font-size:10px;">
x
</text>
<rect x="211.0" y="203.0" width="30.0" height="12.0" style="fill:orange; stroke:rgb(0,0,0);" rx="1"/>
<text x="213" y="212" style="font-family:sans-serif;font-size:10px;">
value
</text>
<rect x="1709.5" y="232.0" width="30.0" height="12.0" style="fill:orange; stroke:rgb(0,0,0);" rx="1"/>
<text x="1711" y="241" style="font-family:sans-serif;font-size:10px;">
value
</text>
<rect x="1547.0" y="203.0" width="13.0" height="12.0" style="fill:orange; stroke:rgb(0,0,0);" rx="1"/>
<text x="1549" y="212" style="font-family:sans-serif;font-size:10px;">
!=
</text>
<rect x="1530.0" y="145.0" width="47.0" height="12.0" style="fill:orange; stroke:rgb(0,0,0);" rx="1"/>
<text x="1532" y="154" style="font-family:sans-serif;font-size:10px;">
compare
</text>
<rect x="869.5" y="203.0" width="30.0" height="12.0" style="fill:orange; stroke:rgb(0,0,0);" rx="1"/>
<text x="871" y="212" style="font-family:sans-serif;font-size:10px;">
value
</text>
<rect x="122.0" y="87.0" width="8.0" height="12.0" style="fill:orange; stroke:rgb(0,0,0);" rx="1"/>
<text x="124" y="96" style="font-family:sans-serif;font-size:10px;">
(
</text>
<rect x="1682.5" y="203.0" width="8.0" height="12.0" style="fill:orange; stroke:rgb(0,0,0);" rx="1"/>
<text x="1684" y="212" style="font-family:sans-serif;font-size:10px;">
(
</text>
<rect x="1907.5" y="203.0" width="8.0" height="12.0" style="fill:orange; stroke:rgb(0,0,0);" rx="1"/>
<text x="1909" y="212" style="font-family:sans-serif;font-size:10px;">
(
</text>
<rect x="1504.5" y="203.0" width="26.0" height="12.0" style="fill:orange; stroke:rgb(0,0,0);" rx="1"/>
<text x="1506" y="212" style="font-family:sans-serif;font-size:10px;">
from
</text>
<rect x="1100.75" y="232.0" width="10.0" height="12.0" style="fill:orange; stroke:rgb(0,0,0);" rx="1"/>
<text x="1102" y="241" style="font-family:sans-serif;font-size:10px;">
x
</text>
<rect x="415.25" y="87.0" width="8.0" height="12.0" style="fill:orange; stroke:rgb(0,0,0);" rx="1"/>
<text x="417" y="96" style="font-family:sans-serif;font-size:10px;">
(
</text>
<rect x="538.75" y="145.0" width="33.0" height="12.0" style="fill:orange; stroke:rgb(0,0,0);" rx="1"/>
<text x="540" y="154" style="font-family:sans-serif;font-size:10px;">
action
</text>
<rect x="864.75" y="87.0" width="8.0" height="12.0" style="fill:orange; stroke:rgb(0,0,0);" rx="1"/>
<text x="866" y="96" style="font-family:sans-serif;font-size:10px;">
}
</text>
<rect x="1167.0" y="116.0" width="57.0" height="12.0" style="fill:orange; stroke:rgb(0,0,0);" rx="1"/>
<text x="1169" y="125" style="font-family:sans-serif;font-size:10px;">
countdown
</text>
<rect x="133.5" y="145.0" width="10.0" height="12.0" style="fill:orange; stroke:rgb(0,0,0);" rx="1"/>
<text x="135" y="154" style="font-family:sans-serif;font-size:10px;">
x
</text>
<rect x="720.0" y="145.0" width="10.0" height="12.0" style="fill:orange; stroke:rgb(0,0,0);" rx="1"/>
<text x="722" y="154" style="font-family:sans-serif;font-size:10px;">
x
</text>
<rect x="123.5" y="116.0" width="30.0" height="12.0" style="fill:orange; stroke:rgb(0,0,0);" rx="1"/>
<text x="125" y="125" style="font-family:sans-serif;font-size:10px;">
value
</text>
<rect x="761.0" y="116.0" width="30.0" height="12.0" style="fill:orange; stroke:rgb(0,0,0);" rx="1"/>
<text x="763" y="125" style="font-family:sans-serif;font-size:10px;">
value
</text>
<rect x="1158.0" y="87.0" width="8.0" height="12.0" style="fill:orange; stroke:rgb(0,0,0);" rx="1"/>
<text x="1160" y="96" style="font-family:sans-serif;font-size:10px;">
}
</text>
<rect x="1637.1666666666667" y="145.0" width="8.0" height="12.0" style="fill:orange; stroke:rgb(0,0,0);" rx="1"/>
<text x="1639" y="154" style="font-family:sans-serif;font-size:10px;">
{
</text>
<rect x="139.875" y="29.0" width="25.0" height="12.0" style="fill:orange; stroke:rgb(0,0,0);" rx="1"/>
<text x="141" y="38" style="font-family:sans-serif;font-size:10px;">
task
</text>
<rect x="1165.25" y="145.0" width="8.0" height="12.0" style="fill:orange; stroke:rgb(0,0,0);" rx="1"/>
<text x="1167" y="154" style="font-family:sans-serif;font-size:10px;">
)
</text>
<rect x="723.5" y="87.0" width="54.0" height="12.0" style="fill:orange; stroke:rgb(0,0,0);" rx="1"/>
<text x="725" y="96" style="font-family:sans-serif;font-size:10px;">
parameter
</text>
<rect x="1806.5" y="203.0" width="14.0" height="12.0" style="fill:orange; stroke:rgb(0,0,0);" rx="1"/>
<text x="1808" y="212" style="font-family:sans-serif;font-size:10px;">
&lt;-
</text>
<rect x="1601.5" y="203.0" width="23.0" height="12.0" style="fill:orange; stroke:rgb(0,0,0);" rx="1"/>
<text x="1603" y="212" style="font-family:sans-serif;font-size:10px;">
Sys
</text>
<rect x="278.25" y="87.0" width="8.0" height="12.0" style="fill:orange; stroke:rgb(0,0,0);" rx="1"/>
<text x="280" y="96" style="font-family:sans-serif;font-size:10px;">
}
</text>
<rect x="586.25" y="232.0" width="10.0" height="12.0" style="fill:orange; stroke:rgb(0,0,0);" rx="1"/>
<text x="588" y="241" style="font-family:sans-serif;font-size:10px;">
y
</text>
<rect x="1081.1666666666665" y="87.0" width="8.0" height="12.0" style="fill:orange; stroke:rgb(0,0,0);" rx="1"/>
<text x="1083" y="96" style="font-family:sans-serif;font-size:10px;">
)
</text>
<rect x="293.0" y="232.0" width="10.0" height="12.0" style="fill:orange; stroke:rgb(0,0,0);" rx="1"/>
<text x="295" y="241" style="font-family:sans-serif;font-size:10px;">
y
</text>
<rect x="285.5" y="145.0" width="8.0" height="12.0" style="fill:orange; stroke:rgb(0,0,0);" rx="1"/>
<text x="287" y="154" style="font-family:sans-serif;font-size:10px;">
)
</text>
<rect x="1539.5" y="174.0" width="28.0" height="12.0" style="fill:orange; stroke:rgb(0,0,0);" rx="1"/>
<text x="1541" y="183" style="font-family:sans-serif;font-size:10px;">
math
</text>
<rect x="1418.0" y="203.0" width="26.0" height="12.0" style="fill:orange; stroke:rgb(0,0,0);" rx="1"/>
<text x="1420" y="212" style="font-family:sans-serif;font-size:10px;">
from
</text>
<rect x="1799.0" y="261.0" width="26.0" height="12.0" style="fill:orange; stroke:rgb(0,0,0);" rx="1"/>
<text x="1801" y="270" style="font-family:sans-serif;font-size:10px;">
from
</text>
<rect x="1921.25" y="145.0" width="33.0" height="12.0" style="fill:orange; stroke:rgb(0,0,0);" rx="1"/>
<text x="1923" y="154" style="font-family:sans-serif;font-size:10px;">
action
</text>
<rect x="726.375" y="29.0" width="25.0" height="12.0" style="fill:orange; stroke:rgb(0,0,0);" rx="1"/>
<text x="728" y="38" style="font-family:sans-serif;font-size:10px;">
task
</text>
<rect x="1515.0" y="145.0" width="8.0" height="12.0" style="fill:orange; stroke:rgb(0,0,0);" rx="1"/>
<text x="1517" y="154" style="font-family:sans-serif;font-size:10px;">
(
</text>
<rect x="834.5" y="203.0" width="28.0" height="12.0" style="fill:orange; stroke:rgb(0,0,0);" rx="1"/>
<text x="836" y="212" style="font-family:sans-serif;font-size:10px;">
math
</text>
<rect x="1713.125" y="87.0" width="33.0" height="12.0" style="fill:orange; stroke:rgb(0,0,0);" rx="1"/>
<text x="1715" y="96" style="font-family:sans-serif;font-size:10px;">
action
</text>
<rect x="638.5" y="87.0" width="14.0" height="12.0" style="fill:orange; stroke:rgb(0,0,0);" rx="1"/>
<text x="640" y="96" style="font-family:sans-serif;font-size:10px;">
&lt;-
</text>
<rect x="832.0" y="145.0" width="33.0" height="12.0" style="fill:orange; stroke:rgb(0,0,0);" rx="1"/>
<text x="834" y="154" style="font-family:sans-serif;font-size:10px;">
action
</text>
<rect x="825.75" y="116.0" width="31.0" height="12.0" style="fill:orange; stroke:rgb(0,0,0);" rx="1"/>
<text x="827" y="125" style="font-family:sans-serif;font-size:10px;">
result
</text>
<rect x="828.0" y="174.0" width="41.0" height="12.0" style="fill:orange; stroke:rgb(0,0,0);" rx="1"/>
<text x="830" y="183" style="font-family:sans-serif;font-size:10px;">
operate
</text>
<rect x="1054.25" y="116.0" width="30.0" height="12.0" style="fill:orange; stroke:rgb(0,0,0);" rx="1"/>
<text x="1056" y="125" style="font-family:sans-serif;font-size:10px;">
value
</text>
<rect x="1387.1666666666667" y="87.0" width="8.0" height="12.0" style="fill:orange; stroke:rgb(0,0,0);" rx="1"/>
<text x="1389" y="96" style="font-family:sans-serif;font-size:10px;">
{
</text>
<rect x="879.5" y="232.0" width="10.0" height="12.0" style="fill:orange; stroke:rgb(0,0,0);" rx="1"/>
<text x="881" y="241" style="font-family:sans-serif;font-size:10px;">
y
</text>
<rect x="1172.75" y="232.0" width="10.0" height="12.0" style="fill:orange; stroke:rgb(0,0,0);" rx="1"/>
<text x="1174" y="241" style="font-family:sans-serif;font-size:10px;">
y
</text>
<rect x="11.5" y="116.0" width="22.0" height="12.0" style="fill:orange; stroke:rgb(0,0,0);" rx="1"/>
<text x="13" y="125" style="font-family:sans-serif;font-size:10px;">
add
</text>
<rect x="578.75" y="145.0" width="8.0" height="12.0" style="fill:orange; stroke:rgb(0,0,0);" rx="1"/>
<text x="580" y="154" style="font-family:sans-serif;font-size:10px;">
)
</text>
<rect x="1645.5" y="203.0" width="30.0" height="12.0" style="fill:orange; stroke:rgb(0,0,0);" rx="1"/>
<text x="1647" y="212" style="font-family:sans-serif;font-size:10px;">
sleep
</text>
<rect x="1773.5" y="203.0" width="26.0" height="12.0" style="fill:orange; stroke:rgb(0,0,0);" rx="1"/>
<text x="1775" y="212" style="font-family:sans-serif;font-size:10px;">
from
</text>
<rect x="1162.75" y="203.0" width="30.0" height="12.0" style="fill:orange; stroke:rgb(0,0,0);" rx="1"/>
<text x="1164" y="212" style="font-family:sans-serif;font-size:10px;">
value
</text>
<rect x="1409.25" y="116.0" width="20.0" height="12.0" style="fill:orange; stroke:rgb(0,0,0);" rx="1"/>
<text x="1411" y="125" style="font-family:sans-serif;font-size:10px;">
call
</text>
<rect x="886.25" y="116.0" width="32.0" height="12.0" style="fill:orange; stroke:rgb(0,0,0);" rx="1"/>
<text x="888" y="125" style="font-family:sans-serif;font-size:10px;">
divide
</text>
<rect x="1402.75" y="87.0" width="33.0" height="12.0" style="fill:orange; stroke:rgb(0,0,0);" rx="1"/>
<text x="1404" y="96" style="font-family:sans-serif;font-size:10px;">
action
</text>
<rect x="1869.0" y="232.0" width="30.0" height="12.0" style="fill:orange; stroke:rgb(0,0,0);" rx="1"/>
<text x="1871" y="241" style="font-family:sans-serif;font-size:10px;">
value
</text>
<rect x="1019.625" y="29.0" width="25.0" height="12.0" style="fill:orange; stroke:rgb(0,0,0);" rx="1"/>
<text x="1021" y="38" style="font-family:sans-serif;font-size:10px;">
task
</text>
<rect x="1138.25" y="232.0" width="7.0" height="12.0" style="fill:orange; stroke:rgb(0,0,0);" rx="1"/>
<text x="1140" y="241" style="font-family:sans-serif;font-size:10px;">
/
</text>
<rect x="1758.5" y="203.0" width="8.0" height="12.0" style="fill:orange; stroke:rgb(0,0,0);" rx="1"/>
<text x="1760" y="212" style="font-family:sans-serif;font-size:10px;">
)
</text>
<rect x="1934.5" y="232.0" width="30.0" height="12.0" style="fill:orange; stroke:rgb(0,0,0);" rx="1"/>
<text x="1936" y="241" style="font-family:sans-serif;font-size:10px;">
value
</text>
<rect x="1677.75" y="174.0" width="20.0" height="12.0" style="fill:orange; stroke:rgb(0,0,0);" rx="1"/>
<text x="1679" y="183" style="font-family:sans-serif;font-size:10px;">
call
</text>
<rect x="52.0" y="87.0" width="14.0" height="12.0" style="fill:orange; stroke:rgb(0,0,0);" rx="1"/>
<text x="54" y="96" style="font-family:sans-serif;font-size:10px;">
&lt;-
</text>
<rect x="1001.75" y="87.0" width="8.0" height="12.0" style="fill:orange; stroke:rgb(0,0,0);" rx="1"/>
<text x="1003" y="96" style="font-family:sans-serif;font-size:10px;">
(
</text>
<rect x="1324.0" y="145.0" width="26.0" height="12.0" style="fill:orange; stroke:rgb(0,0,0);" rx="1"/>
<text x="1326" y="154" style="font-family:sans-serif;font-size:10px;">
from
</text>
<rect x="1800.75" y="145.0" width="33.0" height="12.0" style="fill:orange; stroke:rgb(0,0,0);" rx="1"/>
<text x="1802" y="154" style="font-family:sans-serif;font-size:10px;">
action
</text>
<rect x="576.25" y="203.0" width="30.0" height="12.0" style="fill:orange; stroke:rgb(0,0,0);" rx="1"/>
<text x="578" y="212" style="font-family:sans-serif;font-size:10px;">
value
</text>
<rect x="807.5" y="232.0" width="10.0" height="12.0" style="fill:orange; stroke:rgb(0,0,0);" rx="1"/>
<text x="809" y="241" style="font-family:sans-serif;font-size:10px;">
x
</text>
<rect x="1603.0833333333335" y="145.0" width="8.0" height="12.0" style="fill:orange; stroke:rgb(0,0,0);" rx="1"/>
<text x="1605" y="154" style="font-family:sans-serif;font-size:10px;">
)
</text>
<rect x="534.75" y="174.0" width="41.0" height="12.0" style="fill:orange; stroke:rgb(0,0,0);" rx="1"/>
<text x="536" y="183" style="font-family:sans-serif;font-size:10px;">
operate
</text>
<rect x="1125.25" y="145.0" width="33.0" height="12.0" style="fill:orange; stroke:rgb(0,0,0);" rx="1"/>
<text x="1127" y="154" style="font-family:sans-serif;font-size:10px;">
action
</text>
<rect x="801.34375" y="0.0" width="26.0" height="12.0" style="fill:orange; stroke:rgb(0,0,0);" rx="1"/>
<text x="803" y="9" style="font-family:sans-serif;font-size:10px;">
start
</text>
<rect x="824.75" y="87.0" width="33.0" height="12.0" style="fill:orange; stroke:rgb(0,0,0);" rx="1"/>
<text x="826" y="96" style="font-family:sans-serif;font-size:10px;">
action
</text>
<rect x="1118.0" y="87.0" width="33.0" height="12.0" style="fill:orange; stroke:rgb(0,0,0);" rx="1"/>
<text x="1120" y="96" style="font-family:sans-serif;font-size:10px;">
action
</text>
<rect x="747.0" y="116.0" width="7.0" height="12.0" style="fill:orange; stroke:rgb(0,0,0);" rx="1"/>
<text x="749" y="125" style="font-family:sans-serif;font-size:10px;">
,
</text>
<rect x="1502.5" y="174.0" width="30.0" height="12.0" style="fill:orange; stroke:rgb(0,0,0);" rx="1"/>
<text x="1504" y="183" style="font-family:sans-serif;font-size:10px;">
value
</text>
<rect x="1922.5" y="203.0" width="54.0" height="12.0" style="fill:orange; stroke:rgb(0,0,0);" rx="1"/>
<text x="1924" y="212" style="font-family:sans-serif;font-size:10px;">
parameter
</text>
<rect x="1465.0" y="145.0" width="8.0" height="12.0" style="fill:orange; stroke:rgb(0,0,0);" rx="1"/>
<text x="1467" y="154" style="font-family:sans-serif;font-size:10px;">
)
</text>
<rect x="366.25" y="87.0" width="42.0" height="12.0" style="fill:orange; stroke:rgb(0,0,0);" rx="1"/>
<text x="368" y="96" style="font-family:sans-serif;font-size:10px;">
function
</text>
<rect x="453.75" y="116.0" width="7.0" height="12.0" style="fill:orange; stroke:rgb(0,0,0);" rx="1"/>
<text x="455" y="125" style="font-family:sans-serif;font-size:10px;">
,
</text>
<rect x="1574.5" y="174.0" width="30.0" height="12.0" style="fill:orange; stroke:rgb(0,0,0);" rx="1"/>
<text x="1576" y="183" style="font-family:sans-serif;font-size:10px;">
value
</text>
<rect x="1983.5" y="203.0" width="8.0" height="12.0" style="fill:orange; stroke:rgb(0,0,0);" rx="1"/>
<text x="1985" y="212" style="font-family:sans-serif;font-size:10px;">
)
</text>
<rect x="257.0" y="232.0" width="10.0" height="12.0" style="fill:orange; stroke:rgb(0,0,0);" rx="1"/>
<text x="259" y="241" style="font-family:sans-serif;font-size:10px;">
+
</text>
<rect x="844.5" y="232.0" width="8.0" height="12.0" style="fill:orange; stroke:rgb(0,0,0);" rx="1"/>
<text x="846" y="241" style="font-family:sans-serif;font-size:10px;">
*
</text>
<rect x="494.66666666666663" y="87.0" width="8.0" height="12.0" style="fill:orange; stroke:rgb(0,0,0);" rx="1"/>
<text x="496" y="96" style="font-family:sans-serif;font-size:10px;">
)
</text>
<rect x="494.75" y="145.0" width="37.0" height="12.0" style="fill:orange; stroke:rgb(0,0,0);" rx="1"/>
<text x="496" y="154" style="font-family:sans-serif;font-size:10px;">
return(
</text>
<rect x="710.0" y="116.0" width="30.0" height="12.0" style="fill:orange; stroke:rgb(0,0,0);" rx="1"/>
<text x="712" y="125" style="font-family:sans-serif;font-size:10px;">
value
</text>
<rect x="293.25" y="87.0" width="45.0" height="12.0" style="fill:orange; stroke:rgb(0,0,0);" rx="1"/>
<text x="295" y="96" style="font-family:sans-serif;font-size:10px;">
operator
</text>
<rect x="160.5" y="116.0" width="7.0" height="12.0" style="fill:orange; stroke:rgb(0,0,0);" rx="1"/>
<text x="162" y="125" style="font-family:sans-serif;font-size:10px;">
,
</text>
<rect x="771.0" y="145.0" width="10.0" height="12.0" style="fill:orange; stroke:rgb(0,0,0);" rx="1"/>
<text x="773" y="154" style="font-family:sans-serif;font-size:10px;">
y
</text>
<rect x="1099.5833333333335" y="87.0" width="8.0" height="12.0" style="fill:orange; stroke:rgb(0,0,0);" rx="1"/>
<text x="1101" y="96" style="font-family:sans-serif;font-size:10px;">
{
</text>
<rect x="1371.5833333333335" y="87.0" width="8.0" height="12.0" style="fill:orange; stroke:rgb(0,0,0);" rx="1"/>
<text x="1373" y="96" style="font-family:sans-serif;font-size:10px;">
)
</text>
<rect x="531.5" y="87.0" width="33.0" height="12.0" style="fill:orange; stroke:rgb(0,0,0);" rx="1"/>
<text x="533" y="96" style="font-family:sans-serif;font-size:10px;">
action
</text>
<rect x="1011.125" y="58.0" width="42.0" height="12.0" style="fill:orange; stroke:rgb(0,0,0);" rx="1"/>
<text x="1013" y="67" style="font-family:sans-serif;font-size:10px;">
function
</text>
<rect x="1040.25" y="116.0" width="7.0" height="12.0" style="fill:orange; stroke:rgb(0,0,0);" rx="1"/>
<text x="1042" y="125" style="font-family:sans-serif;font-size:10px;">
,
</text>
<rect x="872.0" y="145.0" width="8.0" height="12.0" style="fill:orange; stroke:rgb(0,0,0);" rx="1"/>
<text x="874" y="154" style="font-family:sans-serif;font-size:10px;">
)
</text>
<rect x="1834.0" y="232.0" width="28.0" height="12.0" style="fill:orange; stroke:rgb(0,0,0);" rx="1"/>
<text x="1836" y="241" style="font-family:sans-serif;font-size:10px;">
math
</text>
<rect x="73.0" y="87.0" width="42.0" height="12.0" style="fill:orange; stroke:rgb(0,0,0);" rx="1"/>
<text x="75" y="96" style="font-family:sans-serif;font-size:10px;">
function
</text>
<rect x="1879.0" y="261.0" width="10.0" height="12.0" style="fill:orange; stroke:rgb(0,0,0);" rx="1"/>
<text x="1881" y="270" style="font-family:sans-serif;font-size:10px;">
1
</text>
<rect x="238.25" y="87.0" width="33.0" height="12.0" style="fill:orange; stroke:rgb(0,0,0);" rx="1"/>
<text x="240" y="96" style="font-family:sans-serif;font-size:10px;">
action
</text>
<rect x="532.5" y="116.0" width="31.0" height="12.0" style="fill:orange; stroke:rgb(0,0,0);" rx="1"/>
<text x="534" y="125" style="font-family:sans-serif;font-size:10px;">
result
</text>
<rect x="416.75" y="116.0" width="30.0" height="12.0" style="fill:orange; stroke:rgb(0,0,0);" rx="1"/>
<text x="418" y="125" style="font-family:sans-serif;font-size:10px;">
value
</text>
<rect x="1119.0" y="116.0" width="31.0" height="12.0" style="fill:orange; stroke:rgb(0,0,0);" rx="1"/>
<text x="1121" y="125" style="font-family:sans-serif;font-size:10px;">
result
</text>
<rect x="424.625" y="58.0" width="42.0" height="12.0" style="fill:orange; stroke:rgb(0,0,0);" rx="1"/>
<text x="426" y="67" style="font-family:sans-serif;font-size:10px;">
function
</text>
<rect x="708.5" y="87.0" width="8.0" height="12.0" style="fill:orange; stroke:rgb(0,0,0);" rx="1"/>
<text x="710" y="96" style="font-family:sans-serif;font-size:10px;">
(
</text>
<rect x="245.5" y="145.0" width="33.0" height="12.0" style="fill:orange; stroke:rgb(0,0,0);" rx="1"/>
<text x="247" y="154" style="font-family:sans-serif;font-size:10px;">
action
</text>
<rect x="504.25" y="203.0" width="30.0" height="12.0" style="fill:orange; stroke:rgb(0,0,0);" rx="1"/>
<text x="506" y="212" style="font-family:sans-serif;font-size:10px;">
value
</text>
<rect x="283.0" y="203.0" width="30.0" height="12.0" style="fill:orange; stroke:rgb(0,0,0);" rx="1"/>
<text x="285" y="212" style="font-family:sans-serif;font-size:10px;">
value
</text>
<rect x="717.875" y="58.0" width="42.0" height="12.0" style="fill:orange; stroke:rgb(0,0,0);" rx="1"/>
<text x="719" y="67" style="font-family:sans-serif;font-size:10px;">
function
</text>
</svg>